<svg aria-hidden="true" style="position: absolute; width: 0; height: 0; overflow: hidden;" version="1.1" xmlns="http://www.w3.org/2000/svg" xmlns:xlink="http://www.w3.org/1999/xlink">
<defs>
<symbol id="icon-calendar" viewBox="0 0 32 32">
<path d="M23.667 4c2.393 0 4.333 1.94 4.333 4.333v15.333c0 2.393-1.94 4.333-4.333 4.333h-15.333c-2.393 0-4.333-1.94-4.333-4.333v-15.333c0-2.393 1.94-4.333 4.333-4.333h15.333zM26 11.333h-20v12.333c0 1.289 1.045 2.333 2.333 2.333h15.333c1.289 0 2.333-1.045 2.333-2.333v-12.333zM23.667 6h-15.333c-1.289 0-2.333 1.045-2.333 2.333v1h20v-1c0-1.289-1.045-2.333-2.333-2.333z"></path>
</symbol>
<symbol id="icon-amazon" viewBox="0 0 107 32">
<path d="M65.876 25.025c-6.171 4.548-15.115 6.975-22.816 6.975-10.798 0-20.518-3.994-27.872-10.636-0.578-0.522-0.060-1.234 0.633-0.827 7.937 4.618 17.75 7.396 27.886 7.396 6.836 0 14.357-1.414 21.272-4.35 1.045-0.444 1.918 0.684 0.897 1.442z"></path>
<path d="M68.442 22.090c-0.786-1.008-5.214-0.476-7.201-0.24-0.605 0.074-0.698-0.453-0.153-0.832 3.527-2.482 9.314-1.766 9.989-0.934 0.675 0.837-0.176 6.638-3.49 9.406-0.508 0.425-0.994 0.199-0.767-0.365 0.744-1.858 2.413-6.023 1.622-7.035z"></path>
<path d="M61.379 3.494v-2.413c0-0.365 0.277-0.61 0.61-0.61h10.802c0.347 0 0.624 0.25 0.624 0.61v2.066c-0.005 0.347-0.296 0.8-0.813 1.516l-5.598 7.992c2.080-0.051 4.276 0.259 6.161 1.322 0.425 0.24 0.541 0.592 0.573 0.938v2.575c0 0.351-0.388 0.763-0.795 0.55-3.323-1.743-7.738-1.932-11.412 0.019-0.374 0.203-0.767-0.203-0.767-0.555v-2.445c0-0.393 0.005-1.063 0.398-1.659l6.485-9.3h-5.644c-0.347 0-0.624-0.245-0.624-0.606z"></path>
<path d="M21.974 18.549h-3.286c-0.314-0.023-0.564-0.259-0.587-0.559v-16.867c0-0.337 0.282-0.606 0.633-0.606h3.065c0.319 0.014 0.573 0.259 0.596 0.564v2.205h0.060c0.8-2.131 2.302-3.125 4.326-3.125 2.057 0 3.342 0.994 4.266 3.125 0.795-2.131 2.602-3.125 4.539-3.125 1.377 0 2.884 0.569 3.804 1.844 1.040 1.419 0.827 3.481 0.827 5.288l-0.005 10.645c0 0.337-0.282 0.61-0.633 0.61h-3.282c-0.328-0.023-0.592-0.287-0.592-0.61v-8.94c0-0.712 0.065-2.487-0.092-3.162-0.245-1.132-0.98-1.451-1.932-1.451-0.795 0-1.627 0.532-1.964 1.382s-0.305 2.274-0.305 3.231v8.94c0 0.337-0.282 0.61-0.633 0.61h-3.282c-0.333-0.023-0.592-0.287-0.592-0.61l-0.005-8.94c0-1.881 0.31-4.65-2.025-4.65-2.362 0-2.269 2.699-2.269 4.65v8.94c0 0.337-0.282 0.61-0.633 0.61z"></path>
<path d="M82.715 0.162c4.877 0 7.516 4.188 7.516 9.513 0 5.145-2.917 9.226-7.516 9.226-4.789 0-7.396-4.188-7.396-9.406 0-5.251 2.639-9.332 7.396-9.332zM82.743 3.605c-2.422 0-2.575 3.3-2.575 5.357 0 2.062-0.032 6.462 2.547 6.462 2.547 0 2.667-3.55 2.667-5.713 0-1.424-0.060-3.125-0.49-4.474-0.37-1.174-1.105-1.632-2.149-1.632z"></path>
<path d="M96.555 18.549h-3.273c-0.328-0.023-0.592-0.287-0.592-0.61l-0.005-16.871c0.028-0.31 0.3-0.55 0.633-0.55h3.046c0.287 0.014 0.522 0.208 0.587 0.471v2.579h0.060c0.919-2.307 2.209-3.407 4.479-3.407 1.474 0 2.912 0.532 3.836 1.988 0.86 1.35 0.86 3.619 0.86 5.251v10.617c-0.037 0.296-0.31 0.532-0.633 0.532h-3.296c-0.301-0.023-0.55-0.245-0.582-0.532v-9.161c0-1.844 0.212-4.544-2.058-4.544-0.799 0-1.534 0.536-1.9 1.35-0.462 1.031-0.522 2.057-0.522 3.194v9.083c-0.005 0.337-0.292 0.61-0.643 0.61z"></path>
<path d="M52.768 10.492c0 1.28 0.032 2.348-0.615 3.485-0.522 0.924-1.354 1.493-2.274 1.493-1.262 0-2.001-0.961-2.001-2.38 0-2.801 2.51-3.309 4.89-3.309v0.712zM56.082 18.503c-0.217 0.194-0.532 0.208-0.777 0.079-1.091-0.906-1.29-1.327-1.886-2.191-1.803 1.84-3.083 2.39-5.417 2.39-2.769 0-4.918-1.706-4.918-5.121 0-2.667 1.442-4.484 3.504-5.371 1.784-0.786 4.276-0.924 6.18-1.142v-0.425c0-0.781 0.060-1.706-0.402-2.38-0.397-0.606-1.165-0.855-1.844-0.855-1.253 0-2.367 0.643-2.639 1.974-0.055 0.296-0.273 0.587-0.573 0.601l-3.185-0.342c-0.268-0.060-0.569-0.277-0.49-0.689 0.73-3.864 4.225-5.029 7.349-5.029 1.599 0 3.689 0.425 4.95 1.636 1.599 1.493 1.447 3.485 1.447 5.653v5.121c0 1.539 0.638 2.214 1.239 3.046 0.208 0.296 0.254 0.652-0.014 0.874-0.67 0.559-1.863 1.599-2.519 2.182l-0.005-0.009z"></path>
<path d="M9.684 10.492c0 1.28 0.032 2.348-0.615 3.485-0.522 0.925-1.35 1.493-2.274 1.493-1.262 0-1.997-0.961-1.997-2.38 0-2.801 2.51-3.309 4.886-3.309v0.712zM12.998 18.503c-0.217 0.194-0.532 0.208-0.777 0.079-1.091-0.906-1.285-1.327-1.886-2.191-1.803 1.84-3.078 2.39-5.417 2.39-2.764 0-4.918-1.706-4.918-5.122 0-2.667 1.447-4.484 3.504-5.371 1.784-0.786 4.276-0.924 6.18-1.142v-0.425c0-0.781 0.060-1.706-0.398-2.38-0.402-0.606-1.169-0.855-1.844-0.855-1.253 0-2.371 0.643-2.644 1.974-0.055 0.296-0.273 0.587-0.569 0.601l-3.189-0.342c-0.268-0.060-0.564-0.277-0.49-0.689 0.735-3.864 4.225-5.029 7.349-5.029 1.599 0 3.689 0.425 4.951 1.636 1.599 1.493 1.447 3.485 1.447 5.653v5.121c0 1.539 0.638 2.214 1.239 3.046 0.213 0.296 0.259 0.652-0.009 0.874-0.67 0.559-1.863 1.599-2.519 2.182l-0.009-0.009z"></path>
</symbol>
<symbol id="icon-dropbox" viewBox="0 0 163 32">
<path d="M45.050 6.013h7.622c4.859 0 8.874 2.812 8.874 9.231v1.349c0 6.468-3.754 9.377-8.727 9.377h-7.768v-19.957zM49.308 9.637v12.693h3.267c2.763 0 4.616-1.804 4.616-5.818v-1.056c0-4.014-1.95-5.818-4.762-5.818h-3.12zM63.805 9.832h3.413l0.553 3.754c0.65-2.552 2.308-3.917 5.314-3.917h1.056v4.307h-1.755c-3.462 0-4.307 1.203-4.307 4.616v7.427h-4.209v-16.187h-0.065zM74.986 18.25v-0.455c0-5.412 3.462-8.37 8.175-8.37 4.811 0 8.175 2.958 8.175 8.37v0.455c0 5.314-3.267 8.175-8.175 8.175-5.217-0.049-8.175-2.844-8.175-8.175zM87.029 18.201v-0.406c0-3.007-1.511-4.811-3.917-4.811-2.357 0-3.917 1.658-3.917 4.811v0.406c0 2.909 1.511 4.567 3.917 4.567 2.405-0.049 3.917-1.658 3.917-4.567zM93.546 9.832h3.51l0.406 3.055c0.845-2.048 2.649-3.462 5.314-3.462 4.112 0 6.826 2.958 6.826 8.435v0.455c0 5.314-3.007 8.126-6.826 8.126-2.551 0-4.307-1.154-5.168-3.007v8.175h-4.112l0.049-21.778zM105.329 18.201v-0.358c0-3.218-1.658-4.811-3.868-4.811-2.357 0-3.917 1.804-3.917 4.811v0.309c0 2.86 1.511 4.664 3.868 4.664 2.421-0.049 3.917-1.593 3.917-4.616zM115.827 23.028l-0.357 2.958h-3.608v-21.566h4.112v8.272c0.91-2.113 2.714-3.267 5.265-3.267 3.868 0.049 6.729 2.714 6.729 8.077v0.504c0 5.363-2.715 8.435-6.826 8.435-2.714-0.065-4.47-1.316-5.315-3.413zM123.645 18.006v-0.406c0-2.958-1.609-4.616-3.868-4.616-2.308 0-3.917 1.853-3.917 4.664v0.358c0 3.007 1.56 4.762 3.868 4.762 2.47 0 3.917-1.544 3.917-4.762zM129.771 18.25v-0.455c0-5.412 3.462-8.37 8.175-8.37 4.811 0 8.175 2.958 8.175 8.37v0.455c0 5.314-3.315 8.175-8.175 8.175-5.217-0.049-8.175-2.844-8.175-8.175zM141.847 18.201v-0.406c0-3.007-1.512-4.811-3.917-4.811-2.357 0-3.917 1.658-3.917 4.811v0.406c0 2.909 1.512 4.567 3.917 4.567 2.421-0.049 3.917-1.658 3.917-4.567zM151.63 17.6l-5.672-7.768h4.86l3.266 4.859 3.316-4.859h4.81l-5.753 7.72 6.062 8.435h-4.762l-3.705-5.363-3.608 5.363h-4.973l6.159-8.386z"></path>
<path d="M18.852 6.013l-9.426 6.013 9.426 6.013-9.426 6.013-9.426-6.046 9.426-6.013-9.426-5.981 9.426-6.013 9.426 6.013zM9.377 25.987l9.426-6.013 9.426 6.013-9.426 6.013-9.426-6.013zM18.852 18.007l9.426-6.013-9.426-5.981 9.377-6.013 9.426 6.013-9.426 6.013 9.426 6.013-9.426 6.013-9.377-6.046z"></path>
</symbol>
<symbol id="icon-adobe" viewBox="0 0 122 32">
<path d="M13.381 0h-13.381v32l13.381-32z"></path>
<path d="M22.795 0h13.363v32l-13.363-32z"></path>
<path d="M18.088 11.793l8.516 20.206h-5.588l-2.545-6.433h-6.233l5.849-13.773z"></path>
<path d="M57.987 20.349l1.578 4.524c0.052 0.113 0.131 0.166 0.27 0.166h3.033c0.166 0 0.192-0.078 0.166-0.244l-6.268-17.408c-0.026-0.139-0.052-0.166-0.192-0.166h-3.766c-0.105 0-0.166 0.078-0.166 0.192-0.052 0.915-0.131 1.194-0.244 1.464l-5.588 15.891c-0.026 0.192 0.035 0.27 0.192 0.27h2.711c0.166 0 0.244-0.052 0.305-0.218l1.491-4.472h6.477zM52.374 17.394c0.819-2.476 1.9-5.649 2.336-7.462h0.026c0.54 1.9 1.813 5.666 2.388 7.462h-4.751z"></path>
<path d="M71.092 25.31c1.63 0 3.365-0.296 5.126-1.055 0.14-0.052 0.166-0.113 0.166-0.244-0.052-0.488-0.113-1.194-0.113-1.735v-16.388c0-0.105 0-0.157-0.131-0.157h-2.955c-0.113 0-0.166 0.052-0.166 0.192v5.553c-0.462-0.052-0.785-0.078-1.168-0.078-4.768 0-7.697 3.147-7.697 7.078 0 4.559 3.007 6.834 6.939 6.834zM73.018 22.277c-0.488 0.157-1.029 0.218-1.578 0.218-2.162 0-3.931-1.22-3.931-4.184 0-2.624 1.822-4.175 4.237-4.175 0.488 0 0.915 0.052 1.273 0.192v7.95z"></path>
<path d="M85.81 11.396c-4.071 0-6.59 3.121-6.59 6.974 0 3.443 2.005 6.939 6.529 6.939 3.827 0 6.511-2.816 6.511-7.026 0-3.713-2.275-6.886-6.45-6.886zM85.645 14.134c2.301 0 3.278 1.979 3.278 4.236 0 2.789-1.438 4.175-3.112 4.175-2.066 0-3.286-1.735-3.286-4.236 0-2.572 1.299-4.175 3.121-4.175z"></path>
<path d="M95.316 5.732c-0.113 0-0.192 0.052-0.192 0.192v18.55c0 0.078 0.079 0.218 0.192 0.244 1.298 0.401 2.659 0.593 4.062 0.593 4.018 0 7.923-2.493 7.923-7.514 0-3.635-2.493-6.398-6.398-6.398-0.898 0-1.734 0.139-2.467 0.384l-0.035-5.832c0-0.192-0.052-0.218-0.244-0.218h-2.842zM103.963 18.128c0 3.007-2.058 4.42-4.281 4.42-0.462 0-0.871-0.026-1.246-0.14v-7.915c0.427-0.166 0.942-0.305 1.892-0.305 2.144 0 3.635 1.36 3.635 3.94z"></path>
<path d="M118.33 19.102c1.325 0 2.415-0.026 2.79-0.113 0.14-0.026 0.192-0.078 0.219-0.192 0.078-0.296 0.112-0.915 0.112-1.674 0-2.58-1.552-5.727-5.561-5.727-4.097 0-6.373 3.339-6.373 7.104 0 3.339 1.761 6.808 6.694 6.808 1.849 0 3.043-0.296 4.071-0.785 0.104-0.052 0.156-0.139 0.156-0.296v-2.258c0-0.131-0.078-0.157-0.156-0.105-1.029 0.436-2.145 0.654-3.365 0.654-2.764 0-4.019-1.526-4.097-3.417h5.509zM112.821 16.766c0.218-1.325 1.054-2.763 2.928-2.763 2.066 0 2.607 1.735 2.607 2.519 0 0.026 0 0.14 0 0.218-0.113 0.026-0.462 0.026-1.491 0.026h-4.044z"></path>
</symbol>
<symbol id="icon-eye" viewBox="0 0 32 32">
<path d="M16 12.006c2.945 0 5.333 2.388 5.333 5.333s-2.388 5.333-5.333 5.333c-2.946 0-5.333-2.388-5.333-5.333s2.388-5.333 5.333-5.333zM16 14.006c-1.841 0-3.333 1.492-3.333 3.333s1.492 3.333 3.333 3.333c1.841 0 3.333-1.492 3.333-3.333s-1.492-3.333-3.333-3.333zM16 7.333c6.151 0 11.462 4.2 12.935 10.086 0.134 0.536-0.191 1.079-0.727 1.213s-1.079-0.191-1.213-0.727c-1.252-5.001-5.766-8.571-10.995-8.571-5.231 0-9.747 3.574-10.996 8.578-0.134 0.536-0.677 0.862-1.212 0.728s-0.862-0.677-0.728-1.213c1.471-5.889 6.783-10.093 12.937-10.093z"></path>
</symbol>
<symbol id="icon-instagram" viewBox="0 0 32 32">
<path d="M31.969 9.408c-0.075-1.7-0.35-2.869-0.744-3.882-0.406-1.075-1.031-2.038-1.85-2.838-0.8-0.813-1.769-1.444-2.832-1.844-1.019-0.394-2.182-0.669-3.882-0.744-1.713-0.081-2.257-0.1-6.601-0.1s-4.888 0.019-6.595 0.094c-1.7 0.075-2.869 0.35-3.882 0.744-1.075 0.406-2.038 1.031-2.838 1.85-0.813 0.8-1.444 1.769-1.844 2.832-0.394 1.019-0.669 2.182-0.744 3.882-0.081 1.713-0.1 2.257-0.1 6.601s0.019 4.888 0.094 6.595c0.075 1.7 0.35 2.869 0.744 3.882 0.406 1.075 1.038 2.038 1.85 2.838 0.8 0.813 1.769 1.444 2.832 1.844 1.019 0.394 2.182 0.669 3.882 0.744 1.706 0.075 2.25 0.094 6.595 0.094s4.888-0.019 6.595-0.094c1.7-0.075 2.869-0.35 3.882-0.744 2.151-0.832 3.851-2.532 4.682-4.682 0.394-1.019 0.669-2.182 0.744-3.882 0.075-1.707 0.094-2.251 0.094-6.595s-0.006-4.888-0.081-6.595zM29.087 22.473c-0.069 1.563-0.331 2.407-0.55 2.969-0.538 1.394-1.644 2.5-3.038 3.038-0.563 0.219-1.413 0.481-2.969 0.55-1.688 0.075-2.194 0.094-6.464 0.094s-4.782-0.019-6.464-0.094c-1.563-0.069-2.407-0.331-2.969-0.55-0.694-0.256-1.325-0.663-1.838-1.194-0.531-0.519-0.938-1.144-1.194-1.838-0.219-0.563-0.481-1.413-0.55-2.969-0.075-1.688-0.094-2.194-0.094-6.464s0.019-4.782 0.094-6.464c0.069-1.563 0.331-2.407 0.55-2.969 0.256-0.694 0.663-1.325 1.2-1.838 0.519-0.531 1.144-0.938 1.838-1.194 0.563-0.219 1.413-0.481 2.969-0.55 1.688-0.075 2.194-0.094 6.464-0.094 4.276 0 4.782 0.019 6.464 0.094 1.563 0.069 2.407 0.331 2.969 0.55 0.694 0.256 1.325 0.662 1.838 1.194 0.531 0.519 0.938 1.144 1.194 1.838 0.219 0.563 0.481 1.413 0.55 2.969 0.075 1.688 0.094 2.194 0.094 6.464s-0.019 4.77-0.094 6.458z"></path>
<path d="M16.059 7.781c-4.538 0-8.22 3.682-8.22 8.22s3.682 8.22 8.22 8.22c4.539 0 8.22-3.682 8.22-8.22s-3.682-8.22-8.22-8.22zM16.059 21.334c-2.944 0-5.332-2.388-5.332-5.332s2.388-5.332 5.332-5.332c2.944 0 5.332 2.388 5.332 5.332s-2.388 5.332-5.332 5.332z"></path>
<path d="M26.524 7.457c0 1.060-0.859 1.919-1.919 1.919s-1.919-0.859-1.919-1.919c0-1.060 0.859-1.919 1.919-1.919s1.919 0.859 1.919 1.919z"></path>
</symbol>
<symbol id="icon-linkedin" viewBox="0 0 32 32">
<path d="M31.992 32.001v-0.001h0.008v-11.736c0-5.741-1.236-10.164-7.948-10.164-3.227 0-5.392 1.771-6.276 3.449h-0.093v-2.913h-6.364v21.364h6.627v-10.579c0-2.785 0.528-5.479 3.977-5.479 3.399 0 3.449 3.179 3.449 5.657v10.401h6.62z"></path>
<path d="M0.528 10.637h6.635v21.364h-6.635v-21.364z"></path>
<path d="M3.843 0c-2.121 0-3.843 1.721-3.843 3.843s1.721 3.879 3.843 3.879c2.121 0 3.843-1.757 3.843-3.879-0.001-2.121-1.723-3.843-3.843-3.843v0z"></path>
</symbol>
<symbol id="icon-facebook" viewBox="0 0 32 32">
<path d="M21.329 5.313h2.921v-5.088c-0.504-0.069-2.237-0.225-4.256-0.225-4.212 0-7.097 2.649-7.097 7.519v4.481h-4.648v5.688h4.648v14.312h5.699v-14.311h4.46l0.708-5.688h-5.169v-3.919c0.001-1.644 0.444-2.769 2.735-2.769z"></path>
</symbol>
<symbol id="icon-mail" viewBox="0 0 32 32">
<path d="M7.001 5.334h18c2.311 0 4.199 1.809 4.327 4.087l0.007 0.246v12.667c0 2.311-1.809 4.199-4.088 4.327l-0.246 0.007h-18c-2.311 0-4.199-1.809-4.326-4.087l-0.007-0.246v-12.667c0-2.311 1.809-4.199 4.087-4.326l0.246-0.007zM27.334 12.498l-10.868 5.721c-0.25 0.131-0.542 0.15-0.803 0.056l-0.128-0.056-10.868-5.72v9.835c0 1.224 0.943 2.228 2.142 2.326l0.191 0.008h18c1.224 0 2.228-0.943 2.326-2.142l0.008-0.191v-9.836zM25 7.334h-18c-1.224 0-2.228 0.943-2.326 2.142l-0.008 0.191v0.572l11.333 5.965 11.333-5.966v-0.571c0-1.224-0.943-2.228-2.142-2.326l-0.191-0.008z"></path>
</symbol>
<symbol id="icon-phone" viewBox="0 0 32 32">
<path d="M22 28c-9.925 0-18-8.075-18-18 0.004-1.702 0.626-3.346 1.75-4.624s2.675-2.105 4.363-2.326c0.43-0.048 0.865 0.043 1.24 0.259s0.672 0.546 0.848 0.941l2.512 5.863c0.13 0.304 0.183 0.636 0.152 0.966s-0.143 0.646-0.327 0.922l-2.075 3.175c0.94 1.907 2.488 3.446 4.4 4.375l3.137-2.088c0.275-0.185 0.592-0.297 0.923-0.326s0.662 0.028 0.965 0.163l5.862 2.5c0.396 0.175 0.726 0.472 0.941 0.848s0.306 0.81 0.259 1.24c-0.221 1.688-1.048 3.238-2.326 4.363s-2.922 1.746-4.624 1.75zM10.363 5.037c-1.206 0.155-2.315 0.745-3.118 1.658s-1.246 2.088-1.245 3.305c0.003 4.242 1.69 8.31 4.69 11.31s7.068 4.687 11.31 4.69c1.216 0.001 2.391-0.442 3.304-1.245s1.503-1.912 1.658-3.118l-5.863-2.5-3.125 2.088c-0.288 0.19-0.619 0.303-0.963 0.327s-0.688-0.041-0.999-0.189c-2.329-1.127-4.213-3.001-5.35-5.325-0.15-0.31-0.217-0.654-0.195-0.998s0.132-0.676 0.32-0.965l2.088-3.175-2.512-5.862z"></path>
</symbol>
<symbol id="icon-twitter" viewBox="0 0 32 32">
<path d="M32 6.078c-1.19 0.522-2.458 0.868-3.78 1.036 1.36-0.812 2.398-2.088 2.886-3.626-1.268 0.756-2.668 1.29-4.16 1.588-1.204-1.282-2.92-2.076-4.792-2.076-3.632 0-6.556 2.948-6.556 6.562 0 0.52 0.044 1.020 0.152 1.496-5.454-0.266-10.28-2.88-13.522-6.862-0.566 0.982-0.898 2.106-0.898 3.316 0 2.272 1.17 4.286 2.914 5.452-1.054-0.020-2.088-0.326-2.964-0.808 0 0.020 0 0.046 0 0.072 0 3.188 2.274 5.836 5.256 6.446-0.534 0.146-1.116 0.216-1.72 0.216-0.42 0-0.844-0.024-1.242-0.112 0.85 2.598 3.262 4.508 6.13 4.57-2.232 1.746-5.066 2.798-8.134 2.798-0.538 0-1.054-0.024-1.57-0.090 2.906 1.874 6.35 2.944 10.064 2.944 12.072 0 18.672-10 18.672-18.668 0-0.29-0.010-0.57-0.024-0.848 1.302-0.924 2.396-2.078 3.288-3.406z"></path>
</symbol>
<symbol id="icon-user" viewBox="0 0 32 32">
<path d="M16 2.674c3.682 0 6.667 2.985 6.667 6.667s-2.985 6.667-6.667 6.667c-3.682 0-6.667-2.985-6.667-6.667s2.985-6.667 6.667-6.667zM16 4.674c-2.577 0-4.667 2.089-4.667 4.667s2.089 4.667 4.667 4.667c2.577 0 4.667-2.089 4.667-4.667s-2.089-4.667-4.667-4.667z"></path>
<path d="M23.673 29.335c1.656 0 2.998-1.342 2.998-2.999v-0.767c0-1.193-0.426-2.346-1.201-3.251-2.092-2.445-5.275-3.651-9.469-3.651s-7.376 1.207-9.464 3.652c-0.773 0.905-1.198 2.057-1.198 3.247v0.77c0 1.656 1.342 2.999 2.998 2.999h15.336zM23.673 27.335h-15.336c-0.551 0-0.998-0.447-0.998-0.999v-0.77c0-0.714 0.255-1.405 0.719-1.948 1.671-1.957 4.292-2.951 7.943-2.951s6.274 0.994 7.95 2.951c0.465 0.544 0.721 1.236 0.721 1.951v0.767c0 0.551-0.447 0.999-0.998 0.999z"></path>
</symbol>
<symbol id="icon-spotify" viewBox="0 0 104 32">
<path d="M15.682 0.058c-8.631 0-15.628 6.997-15.628 15.628s6.997 15.628 15.628 15.628c8.632 0 15.628-6.996 15.628-15.628s-6.996-15.627-15.629-15.627l0-0.001zM22.849 22.598c-0.28 0.459-0.881 0.605-1.34 0.323-3.669-2.241-8.289-2.749-13.729-1.506-0.524 0.119-1.047-0.209-1.166-0.733s0.207-1.047 0.733-1.166c5.953-1.36 11.060-0.774 15.179 1.743 0.459 0.282 0.605 0.881 0.323 1.34zM24.762 18.343c-0.353 0.573-1.103 0.754-1.676 0.402-4.201-2.582-10.604-3.33-15.573-1.822-0.644 0.195-1.325-0.168-1.521-0.812-0.194-0.644 0.169-1.324 0.813-1.52 5.676-1.722 12.732-0.888 17.556 2.077 0.573 0.353 0.754 1.103 0.401 1.675v-0zM24.926 13.912c-5.037-2.992-13.347-3.267-18.156-1.807-0.772 0.234-1.589-0.202-1.823-0.974s0.202-1.589 0.974-1.823c5.52-1.676 14.698-1.352 20.497 2.091 0.696 0.412 0.924 1.309 0.511 2.003-0.411 0.695-1.31 0.924-2.002 0.511h-0.001zM42.573 14.485c-2.699-0.643-3.178-1.095-3.178-2.044 0-0.897 0.844-1.5 2.099-1.5 1.217 0 2.422 0.458 3.688 1.401 0.037 0.028 0.086 0.040 0.132 0.032 0.049-0.007 0.090-0.033 0.118-0.072l1.318-1.857c0.054-0.076 0.039-0.182-0.034-0.24-1.506-1.208-3.201-1.795-5.182-1.795-2.913 0-4.949 1.748-4.949 4.25 0 2.683 1.756 3.633 4.791 4.366 2.581 0.595 3.018 1.093 3.018 1.984 0 0.987-0.881 1.601-2.299 1.601-1.575 0-2.861-0.532-4.298-1.775-0.035-0.032-0.084-0.045-0.129-0.043-0.049 0.004-0.091 0.026-0.121 0.062l-1.478 1.758c-0.062 0.075-0.054 0.183 0.017 0.246 1.672 1.493 3.729 2.281 5.949 2.281 3.139 0 5.168-1.715 5.168-4.371 0.006-2.241-1.336-3.482-4.623-4.281l-0.006-0.002zM54.304 11.824c-1.36 0-2.477 0.536-3.398 1.634v-1.236c0-0.098-0.078-0.177-0.175-0.177h-2.417c-0.097 0-0.175 0.079-0.175 0.177v13.735c0 0.097 0.078 0.177 0.175 0.177h2.417c0.097 0 0.175-0.080 0.175-0.177v-4.335c0.922 1.032 2.038 1.538 3.398 1.538 2.529 0 5.089-1.947 5.089-5.668 0.004-3.722-2.557-5.669-5.087-5.669l-0.002 0zM56.583 17.492c0 1.894-1.166 3.217-2.838 3.217-1.652 0-2.898-1.383-2.898-3.217s1.247-3.217 2.898-3.217c1.644-0 2.838 1.352 2.838 3.217v0zM65.953 11.824c-3.257 0-5.808 2.507-5.808 5.709 0 3.167 2.534 5.647 5.768 5.647 3.268 0 5.826-2.499 5.826-5.688 0-3.178-2.542-5.668-5.787-5.668v-0zM65.953 20.728c-1.732 0-3.038-1.392-3.038-3.237 0-1.853 1.262-3.198 2.999-3.198 1.743 0 3.057 1.392 3.057 3.238 0 1.853-1.269 3.196-3.018 3.196zM78.693 12.045h-2.659v-2.718c0-0.098-0.079-0.177-0.176-0.177h-2.417c-0.097 0-0.177 0.079-0.177 0.177v2.718h-1.161c-0.097 0-0.175 0.079-0.175 0.177v2.076c0 0.097 0.078 0.177 0.175 0.177h1.161v5.374c0 2.17 1.081 3.271 3.214 3.271 0.865 0 1.584-0.179 2.262-0.564 0.056-0.030 0.089-0.090 0.089-0.153v-1.978c0-0.060-0.031-0.118-0.084-0.149-0.052-0.034-0.118-0.035-0.171-0.007-0.465 0.233-0.915 0.341-1.418 0.341-0.775 0-1.121-0.353-1.121-1.14v-4.994h2.659c0.097 0 0.176-0.079 0.176-0.177v-2.076c0.004-0.098-0.074-0.177-0.173-0.177l-0.002-0.001zM87.958 12.055v-0.334c0-0.982 0.377-1.42 1.22-1.42 0.504 0 0.909 0.1 1.362 0.251 0.056 0.018 0.114 0.009 0.159-0.025 0.047-0.033 0.073-0.087 0.073-0.144v-2.036c0-0.078-0.048-0.147-0.125-0.17-0.478-0.142-1.090-0.289-2.008-0.289-2.23 0-3.411 1.257-3.411 3.633v0.511h-1.161c-0.097 0-0.177 0.080-0.177 0.177v2.087c0 0.097 0.080 0.177 0.177 0.177h1.161v8.287c0 0.099 0.080 0.177 0.177 0.177h2.415c0.099 0 0.177-0.078 0.177-0.177v-8.286h2.256l3.456 8.286c-0.391 0.87-0.778 1.043-1.305 1.043-0.425 0-0.875-0.127-1.332-0.379-0.043-0.022-0.095-0.026-0.14-0.013-0.047 0.017-0.086 0.050-0.105 0.095l-0.819 1.797c-0.039 0.086-0.006 0.185 0.076 0.23 0.855 0.463 1.626 0.661 2.579 0.661 1.784 0 2.771-0.832 3.639-3.068l4.191-10.831c0.023-0.054 0.015-0.116-0.019-0.164-0.031-0.048-0.086-0.077-0.144-0.077h-2.515c-0.077 0-0.144 0.048-0.168 0.119l-2.577 7.359-2.822-7.364c-0.026-0.068-0.092-0.114-0.164-0.114l-4.128-0.001zM82.586 12.045h-2.416c-0.097 0-0.177 0.079-0.177 0.177v10.54c0 0.099 0.080 0.177 0.177 0.177h2.416c0.097 0 0.178-0.078 0.178-0.177v-10.54c0-0.098-0.079-0.177-0.178-0.177v-0.001zM81.392 7.245c-0.957 0-1.733 0.775-1.733 1.732s0.776 1.733 1.733 1.733c0.958 0 1.732-0.776 1.732-1.733s-0.777-1.732-1.732-1.732zM102.558 15.434c-0.956 0-1.7-0.768-1.7-1.701s0.755-1.709 1.71-1.709c0.955 0 1.7 0.768 1.7 1.7s-0.754 1.71-1.709 1.71zM102.568 12.193c-0.872 0-1.531 0.692-1.531 1.54s0.655 1.53 1.521 1.53c0.871 0 1.53-0.692 1.53-1.54s-0.655-1.53-1.52-1.53zM102.945 13.899l0.481 0.673h-0.407l-0.432-0.618h-0.371v0.618h-0.34v-1.785h0.795c0.417 0 0.689 0.212 0.689 0.569 0.001 0.293-0.168 0.471-0.412 0.542h-0.002zM102.657 13.093h-0.442v0.565h0.442c0.22 0 0.353-0.108 0.353-0.283 0-0.184-0.132-0.282-0.353-0.282z"></path>
</symbol>
<symbol id="icon-discord" viewBox="0 0 161 32">
<path d="M33.988 2.656c-2.597-1.215-5.374-2.098-8.278-2.601-0.357 0.645-0.773 1.512-1.060 2.201-3.086-0.464-6.144-0.464-9.174 0-0.287-0.69-0.713-1.557-1.073-2.201-2.906 0.503-5.687 1.389-8.284 2.608-5.239 7.916-6.659 15.636-5.949 23.246 3.474 2.595 6.842 4.171 10.152 5.202 0.817-1.125 1.546-2.321 2.174-3.581-1.196-0.454-2.342-1.015-3.424-1.666 0.287-0.213 0.568-0.435 0.839-0.664 6.602 3.088 13.775 3.088 20.298 0 0.275 0.229 0.555 0.451 0.839 0.664-1.086 0.654-2.234 1.215-3.43 1.67 0.628 1.257 1.354 2.456 2.174 3.581 3.313-1.031 6.684-2.608 10.158-5.205 0.833-8.822-1.423-16.471-5.964-23.252zM13.396 21.228c-1.982 0-3.607-1.85-3.607-4.103s1.591-4.106 3.607-4.106c2.017 0 3.642 1.85 3.607 4.106 0.003 2.253-1.591 4.103-3.607 4.103zM26.726 21.228c-1.982 0-3.607-1.85-3.607-4.103s1.59-4.106 3.607-4.106c2.017 0 3.642 1.85 3.607 4.106 0 2.253-1.59 4.103-3.607 4.103z"></path>
<path d="M53.916 7.979h8.615c2.077 0 3.831 0.332 5.271 0.993 1.435 0.661 2.512 1.583 3.225 2.762s1.073 2.53 1.073 4.052c0 1.489-0.372 2.84-1.117 4.048-0.745 1.212-1.878 2.169-3.402 2.875s-3.412 1.060-5.668 1.060h-7.997v-15.79zM61.824 19.756c1.398 0 2.474-0.358 3.225-1.070 0.751-0.715 1.127-1.689 1.127-2.923 0-1.144-0.335-2.056-1.004-2.74s-1.682-1.028-3.036-1.028h-2.695v7.761h2.383z"></path>
<path d="M84.997 23.75c-1.193-0.316-2.269-0.774-3.225-1.376v-3.745c0.723 0.57 1.691 1.041 2.906 1.412 1.215 0.367 2.389 0.551 3.525 0.551 0.53 0 0.931-0.071 1.202-0.213s0.408-0.313 0.408-0.509c0-0.226-0.073-0.413-0.221-0.564s-0.436-0.277-0.861-0.384l-2.651-0.609c-1.518-0.361-2.594-0.861-3.235-1.502-0.641-0.638-0.96-1.476-0.96-2.514 0-0.873 0.278-1.631 0.84-2.279 0.558-0.648 1.354-1.147 2.385-1.499 1.032-0.355 2.237-0.532 3.623-0.532 1.237 0 2.37 0.135 3.402 0.406s1.884 0.616 2.563 1.038v3.542c-0.695-0.422-1.49-0.754-2.399-1.006-0.906-0.248-1.836-0.371-2.796-0.371-1.385 0-2.076 0.242-2.076 0.722 0 0.226 0.107 0.393 0.322 0.506s0.609 0.229 1.18 0.351l2.209 0.406c1.443 0.255 2.519 0.703 3.225 1.341s1.061 1.583 1.061 2.833c0 1.37-0.584 2.456-1.755 3.262s-2.831 1.209-4.983 1.209c-1.266-0.003-2.496-0.161-3.689-0.477z"></path>
<path d="M100.638 23.276c-1.265-0.632-2.221-1.489-2.859-2.572s-0.959-2.301-0.959-3.655c0-1.354 0.331-2.566 0.994-3.633s1.635-1.905 2.916-2.514 2.812-0.912 4.595-0.912c2.209 0 4.042 0.474 5.501 1.421v4.129c-0.515-0.361-1.114-0.654-1.8-0.88s-1.416-0.338-2.2-0.338c-1.369 0-2.439 0.255-3.212 0.767s-1.161 1.18-1.161 2.008c0 0.812 0.376 1.476 1.127 1.998 0.751 0.519 1.84 0.78 3.27 0.78 0.735 0 1.461-0.11 2.177-0.326 0.713-0.219 1.329-0.487 1.843-0.803v3.994c-1.618 0.993-3.496 1.489-5.633 1.489-1.799-0.006-3.333-0.322-4.598-0.954z"></path>
<path d="M116.335 23.276c-1.275-0.632-2.247-1.496-2.917-2.595-0.668-1.099-1.006-2.324-1.006-3.678s0.334-2.562 1.006-3.623 1.639-1.892 2.907-2.495c1.265-0.603 2.776-0.902 4.528-0.902s3.263 0.3 4.529 0.902c1.265 0.603 2.232 1.428 2.894 2.482s0.994 2.263 0.994 3.633c0 1.354-0.331 2.579-0.994 3.678s-1.632 1.963-2.907 2.595c-1.274 0.632-2.78 0.948-4.519 0.948s-3.244-0.313-4.516-0.944zM123.047 19.273c0.537-0.548 0.808-1.273 0.808-2.176s-0.268-1.621-0.808-2.153c-0.536-0.535-1.269-0.803-2.196-0.803-0.944 0-1.683 0.268-2.222 0.803-0.536 0.535-0.805 1.251-0.805 2.153s0.268 1.628 0.805 2.176c0.537 0.548 1.278 0.825 2.222 0.825 0.927-0.003 1.66-0.277 2.196-0.825z"></path>
<path d="M142.543 10.821v4.873c-0.561-0.377-1.288-0.564-2.186-0.564-1.177 0-2.087 0.364-2.718 1.093-0.633 0.728-0.95 1.863-0.95 3.397v4.152h-5.412v-13.199h5.302v4.197c0.294-1.534 0.77-2.665 1.427-3.397 0.653-0.728 1.498-1.093 2.527-1.093 0.779 0 1.449 0.181 2.010 0.541z"></path>
<path d="M160.525 7.527v16.245h-5.413v-2.956c-0.457 1.112-1.151 1.96-2.086 2.54-0.935 0.577-2.089 0.867-3.459 0.867-1.224 0-2.291-0.303-3.203-0.912s-1.615-1.444-2.111-2.504c-0.492-1.061-0.742-2.259-0.742-3.6-0.016-1.383 0.246-2.624 0.786-3.723 0.536-1.099 1.297-1.956 2.275-2.572s2.096-0.925 3.349-0.925c2.579 0 4.308 1.144 5.191 3.429v-5.889h5.413zM154.305 19.182c0.552-0.548 0.827-1.26 0.827-2.131 0-0.841-0.268-1.528-0.805-2.053s-1.272-0.79-2.197-0.79c-0.912 0-1.64 0.267-2.187 0.803s-0.817 1.228-0.817 2.085 0.271 1.557 0.817 2.098c0.547 0.542 1.266 0.812 2.165 0.812 0.912-0.003 1.644-0.277 2.197-0.825z"></path>
<path d="M76.66 11.978c1.49 0 2.698-1.108 2.698-2.475s-1.208-2.475-2.698-2.475c-1.49 0-2.698 1.108-2.698 2.475s1.208 2.475 2.698 2.475z"></path>
<path d="M73.96 13.684c1.653 0.728 3.705 0.761 5.396 0v10.16h-5.396v-10.16z"></path>
</symbol>
<symbol id="icon-pre-design" viewBox="0 0 32 32">
<path d="M28.797 5.2c0-2.872-2.328-5.2-5.2-5.2h-18.398c-2.872 0-5.2 2.328-5.2 5.2v18.398c0 2.872 2.328 5.2 5.2 5.2h7.864l0.569-2.277c0.010-0.041 0.021-0.082 0.032-0.123h-8.465c-1.546 0-2.8-1.253-2.8-2.8v-14.799h23.998v4.371c0.766-0.305 1.59-0.422 2.4-0.352v-7.619zM5.2 2.4h18.398c1.546 0 2.8 1.253 2.8 2.8v1.2h-23.998v-1.2c0-1.546 1.253-2.8 2.8-2.8zM25.757 15.47l-9.443 9.443c-0.551 0.551-0.941 1.241-1.13 1.996l-0.732 2.929c-0.319 1.274 0.835 2.428 2.109 2.109l2.929-0.732c0.755-0.189 1.445-0.579 1.996-1.13l9.443-9.443c1.428-1.428 1.428-3.744 0-5.172s-3.743-1.428-5.172 0z"></path>
</symbol>
<symbol id="icon-design" viewBox="0 0 32 32">
<path d="M28.887 4.667c0-2.872-2.328-5.2-5.2-5.2h-18.4c-2.872 0-5.2 2.328-5.2 5.2v19.652c0 2.086 2.513 3.14 4.001 1.677l6.447-6.336c0.011-0.011 0.022-0.022 0.033-0.033l3.080-3.016 0.134-0.113c0.466-0.34 1.121-0.302 1.546 0.113l3.327 3.258 1.698-1.698-3.345-3.276-0.205-0.186c-1.405-1.181-3.499-1.119-4.832 0.186l-7.124 6.975h0.018l-2.375 2.334v-19.538c0-1.546 1.254-2.8 2.8-2.8h18.4c1.546 0 2.8 1.254 2.8 2.8v7.972c0.766-0.305 1.59-0.422 2.4-0.352v-7.62zM23.293 8.67c0-1.99-1.613-3.603-3.604-3.603s-3.603 1.613-3.603 3.603 1.613 3.603 3.603 3.603c1.99 0 3.604-1.613 3.604-3.603zM18.486 8.67c0-0.665 0.539-1.203 1.203-1.203s1.204 0.539 1.204 1.203-0.539 1.203-1.204 1.203c-0.665 0-1.203-0.539-1.203-1.203zM16.403 24.382l9.444-9.444c1.428-1.428 3.744-1.428 5.172 0s1.428 3.744 0 5.172l-9.444 9.444c-0.551 0.551-1.241 0.941-1.996 1.13l-2.929 0.732c-0.080 0.020-0.159 0.034-0.237 0.043-0.946 0.326-4.768 0.918-6.124-0.141-0.919-0.717-0.736-2.135-0.348-2.91 0.062-0.124-0.032-0.286-0.169-0.265-1.057 0.165-1.989 0.721-2.922 1.278-1.254 0.748-2.511 1.498-4.079 1.304-1.566-0.195-2.349-1.161-2.736-2.007-0.158-0.346 0.287-0.642 0.621-0.46 0.75 0.409 1.769 0.793 2.61 0.607 0.6-0.133 1.446-0.731 2.394-1.402 1.704-1.206 3.739-2.645 5.267-2.030 1.342 0.54 2.335 1.842 1.648 3.381-0.084 0.189 0 0.421 0.202 0.468 0.677 0.155 1.245 0.106 1.813-0.167l0.685-2.739c0.189-0.756 0.579-1.445 1.13-1.996z"></path>
</symbol>
<symbol id="icon-development" viewBox="0 0 32 32">
<path d="M5.778 0c-3.191 0-5.778 2.587-5.778 5.778v20.444c0 3.191 2.587 5.778 5.778 5.778h20.444c3.191 0 5.778-2.587 5.778-5.778v-20.444c0-3.191-2.587-5.778-5.778-5.778h-20.444zM2.667 5.778c0-1.718 1.393-3.111 3.111-3.111h20.444c1.718 0 3.111 1.393 3.111 3.111v20.444c0 1.718-1.393 3.111-3.111 3.111h-20.444c-1.718 0-3.111-1.393-3.111-3.111v-20.444zM13.387 11.165c0.521-0.521 0.521-1.365 0-1.886s-1.365-0.521-1.886 0l-5.778 5.778c-0.521 0.521-0.521 1.365 0 1.885l5.778 5.778c0.521 0.521 1.365 0.521 1.886 0s0.521-1.365 0-1.886l-4.835-4.835 4.835-4.835zM20.498 9.279c-0.521-0.521-1.365-0.521-1.886 0s-0.521 1.365 0 1.886l4.835 4.835-4.835 4.835c-0.521 0.521-0.521 1.365 0 1.886s1.365 0.521 1.886 0l5.778-5.778c0.521-0.521 0.521-1.365 0-1.885l-5.778-5.778z"></path>
</symbol>
<symbol id="icon-support" viewBox="0 0 33 32">
<path d="M14.069 1.246c0-0.686-0.556-1.241-1.241-1.241s-1.241 0.556-1.241 1.241v1.245c0 1.047 0.324 2.018 0.877 2.819-2.305 0.793-3.997 2.905-4.172 5.435l-0.424-0c-2.057-0.008-3.717-1.683-3.709-3.739l0.010-2.459c0.003-0.686-0.551-1.244-1.236-1.247s-1.244 0.551-1.246 1.236l-0.010 2.459c-0.014 3.428 2.753 6.218 6.181 6.232l0.026 0h0.393v2.499h-7.034c-0.686 0-1.241 0.556-1.241 1.241s0.556 1.241 1.241 1.241h7.034v3.298h-0.419c-3.428 0.014-6.195 2.805-6.181 6.233l0.010 2.459c0.003 0.686 0.561 1.239 1.246 1.236s1.239-0.561 1.236-1.246l-0.010-2.459c-0.008-2.057 1.652-3.731 3.709-3.74h0.783c1.050 3.365 4.191 5.807 7.901 5.807s6.851-2.442 7.901-5.807h0.783c2.057 0.009 3.717 1.683 3.709 3.74l-0.010 2.459c-0.003 0.686 0.551 1.244 1.236 1.246s1.244-0.551 1.247-1.236l0.010-2.459c0.014-3.428-2.753-6.218-6.181-6.233h-0.419v-3.298h7.037c0.686 0 1.241-0.556 1.241-1.241s-0.556-1.241-1.241-1.241h-7.037v-2.499l0.419-0c3.428-0.014 6.195-2.805 6.181-6.232l-0.010-2.459c-0.003-0.686-0.561-1.239-1.247-1.236s-1.239 0.561-1.236 1.247l0.010 2.459c0.009 2.057-1.652 3.731-3.709 3.739l-0.015 0h-0.408c-0.175-2.53-1.867-4.643-4.172-5.435 0.553-0.801 0.877-1.772 0.877-2.819v-1.245c0-0.686-0.556-1.241-1.241-1.241s-1.241 0.556-1.241 1.241v1.245c0 1.371-1.112 2.483-2.483 2.483s-2.483-1.112-2.483-2.483v-1.245zM10.759 11.18c0-2.057 1.667-3.724 3.724-3.724h4.138c2.057 0 3.724 1.667 3.724 3.724v10.34c0 3.199-2.594 5.793-5.793 5.793s-5.793-2.594-5.793-5.793v-10.34z"></path>
</symbol>
<symbol id="icon-top-right-corner" viewBox="0 0 32 32">
<path d="M21.962 6h-18.962c-1.657 0-3-1.343-3-3s1.343-3 3-3h26c1.657 0 3 1.343 3 3v26c0 1.657-1.343 3-3 3s-3-1.343-3-3v-18.554l-20.889 20.686c-1.177 1.166-3.077 1.156-4.242-0.021s-1.157-3.077 0.020-4.242l21.073-20.869z"></path>
</symbol>
<symbol id="icon-check" viewBox="0 0 43 32">
<path d="M15.281 31.417c0.729 0.729 1.969 0.729 2.698 0l21.437-21.437c0.729-0.729 0.729-1.969 0-2.698l-2.625-2.625c-0.729-0.729-1.895-0.729-2.625 0l-17.5 17.5-8.24-8.167c-0.729-0.729-1.896-0.729-2.625 0l-2.625 2.625c-0.729 0.729-0.729 1.969 0 2.698l12.104 12.104z"></path>
</symbol>
<symbol id="icon-right-arrow" viewBox="0 0 43 32">
<path d="M24.8 30.069c-0.533-0.533-0.789-1.178-0.768-1.933 0.023-0.756 0.301-1.4 0.835-1.933l7.533-7.533h-29.733c-0.756 0-1.389-0.256-1.901-0.768-0.51-0.51-0.765-1.143-0.765-1.899s0.255-1.389 0.765-1.901c0.512-0.51 1.146-0.765 1.901-0.765h29.733l-7.6-7.6c-0.533-0.533-0.8-1.167-0.8-1.901 0-0.732 0.267-1.365 0.8-1.899s1.167-0.8 1.901-0.8c0.733 0 1.365 0.267 1.899 0.8l12.2 12.2c0.267 0.267 0.456 0.556 0.568 0.867 0.11 0.311 0.165 0.644 0.165 1s-0.055 0.689-0.165 1c-0.112 0.311-0.301 0.6-0.568 0.867l-12.267 12.267c-0.489 0.489-1.099 0.733-1.832 0.733-0.734 0-1.368-0.267-1.901-0.8z"></path>
</symbol>
<symbol id="icon-airbnb" viewBox="0 0 102 32">
<path d="M54.038 8.040c0 1.153-0.929 2.082-2.082 2.082s-2.082-0.929-2.082-2.082c0-1.153 0.897-2.082 2.082-2.082 1.185 0.032 2.082 0.961 2.082 2.082zM45.453 12.236c0 0.192 0 0.512 0 0.512s-0.993-1.281-3.107-1.281c-3.492 0-6.214 2.659-6.214 6.342 0 3.652 2.691 6.342 6.214 6.342 2.146 0 3.107-1.313 3.107-1.313v0.545c0 0.256 0.192 0.448 0.448 0.448h2.595v-12.044c0 0-2.37 0-2.595 0-0.256 0-0.448 0.224-0.448 0.448zM45.453 19.956c-0.48 0.705-1.441 1.313-2.595 1.313-2.050 0-3.62-1.281-3.62-3.459s1.57-3.46 3.62-3.46c1.121 0 2.146 0.641 2.595 1.313v4.292zM50.418 11.788h3.075v12.044h-3.075v-12.044zM96.352 11.467c-2.114 0-3.107 1.281-3.107 1.281v-6.759h-3.075v17.842c0 0 2.37 0 2.594 0 0.257 0 0.449-0.224 0.449-0.448v-0.545c0 0 0.993 1.313 3.107 1.313 3.491 0 6.214-2.691 6.214-6.342s-2.723-6.342-6.182-6.342zM95.839 21.237c-1.185 0-2.114-0.609-2.594-1.313v-4.292c0.481-0.641 1.506-1.313 2.594-1.313 2.050 0 3.62 1.281 3.62 3.459s-1.57 3.459-3.62 3.459zM88.568 16.689v7.175h-3.075v-6.823c0-1.986-0.641-2.787-2.37-2.787-0.929 0-1.89 0.48-2.498 1.185v8.392h-3.075v-12.044h2.434c0.256 0 0.448 0.224 0.448 0.448v0.512c0.897-0.929 2.082-1.281 3.267-1.281 1.346 0 2.466 0.384 3.363 1.153 1.090 0.897 1.506 2.050 1.506 4.068zM70.086 11.467c-2.114 0-3.107 1.281-3.107 1.281v-6.759h-3.075v17.842c0 0 2.37 0 2.595 0 0.256 0 0.448-0.224 0.448-0.448v-0.545c0 0 0.993 1.313 3.107 1.313 3.491 0 6.214-2.691 6.214-6.342 0.032-3.652-2.691-6.342-6.182-6.342zM69.573 21.237c-1.185 0-2.114-0.609-2.595-1.313v-4.292c0.48-0.641 1.506-1.313 2.595-1.313 2.050 0 3.62 1.281 3.62 3.459s-1.57 3.459-3.62 3.459zM61.245 11.467c0.929 0 1.409 0.16 1.409 0.16v2.851c0 0-2.563-0.865-4.164 0.961v8.424h-3.075v-12.076c0 0 2.37 0 2.595 0 0.256 0 0.448 0.224 0.448 0.448v0.512c0.577-0.673 1.826-1.281 2.787-1.281zM29.309 22.743c-0.16-0.384-0.32-0.801-0.48-1.153-0.256-0.577-0.513-1.121-0.737-1.634l-0.032-0.032c-2.21-4.805-4.581-9.674-7.079-14.478l-0.096-0.192c-0.256-0.48-0.512-0.993-0.769-1.506-0.32-0.577-0.641-1.185-1.153-1.762-1.025-1.281-2.498-1.986-4.068-1.986-1.602 0-3.043 0.705-4.1 1.922-0.48 0.577-0.833 1.185-1.153 1.762-0.256 0.513-0.513 1.025-0.769 1.506l-0.096 0.192c-2.466 4.805-4.869 9.674-7.079 14.478l-0.032 0.064c-0.224 0.512-0.48 1.057-0.737 1.634-0.16 0.352-0.32 0.737-0.48 1.153-0.416 1.185-0.545 2.306-0.384 3.459 0.352 2.402 1.954 4.42 4.164 5.317 0.833 0.352 1.698 0.512 2.595 0.512 0.256 0 0.577-0.032 0.833-0.064 1.057-0.128 2.146-0.48 3.203-1.089 1.313-0.737 2.563-1.794 3.972-3.331 1.409 1.538 2.691 2.595 3.972 3.331 1.057 0.609 2.146 0.961 3.203 1.089 0.256 0.032 0.577 0.064 0.833 0.064 0.897 0 1.794-0.16 2.595-0.512 2.242-0.897 3.812-2.947 4.164-5.317 0.256-1.121 0.128-2.242-0.288-3.427zM14.862 24.408c-1.73-2.178-2.851-4.228-3.235-5.958-0.16-0.737-0.192-1.377-0.096-1.954 0.064-0.512 0.256-0.961 0.513-1.345 0.609-0.865 1.634-1.409 2.819-1.409s2.242 0.512 2.819 1.409c0.256 0.384 0.448 0.833 0.513 1.345 0.096 0.577 0.064 1.249-0.096 1.954-0.384 1.698-1.505 3.748-3.235 5.958zM27.643 25.914c-0.224 1.666-1.345 3.107-2.915 3.748-0.769 0.32-1.602 0.416-2.434 0.32-0.801-0.096-1.602-0.352-2.434-0.833-1.153-0.641-2.306-1.634-3.652-3.107 2.114-2.595 3.395-4.965 3.876-7.079 0.224-0.993 0.256-1.89 0.16-2.723-0.128-0.801-0.416-1.538-0.865-2.178-0.993-1.441-2.659-2.274-4.516-2.274s-3.524 0.865-4.516 2.274c-0.448 0.641-0.737 1.377-0.865 2.178-0.128 0.833-0.096 1.762 0.16 2.723 0.48 2.114 1.794 4.517 3.876 7.111-1.313 1.473-2.498 2.466-3.652 3.107-0.833 0.48-1.634 0.737-2.434 0.833-0.865 0.096-1.698-0.032-2.434-0.32-1.57-0.641-2.691-2.082-2.915-3.748-0.096-0.801-0.032-1.602 0.288-2.498 0.096-0.32 0.256-0.641 0.416-1.025 0.224-0.512 0.48-1.057 0.737-1.602l0.032-0.064c2.21-4.773 4.581-9.642 7.047-14.382l0.096-0.192c0.256-0.48 0.512-0.993 0.769-1.473 0.256-0.513 0.544-0.993 0.897-1.409 0.673-0.769 1.57-1.185 2.563-1.185s1.89 0.416 2.563 1.185c0.352 0.416 0.641 0.897 0.897 1.409 0.256 0.48 0.512 0.993 0.769 1.473l0.096 0.192c2.434 4.773 4.805 9.642 7.015 14.414v0.032c0.256 0.513 0.48 1.089 0.737 1.602 0.16 0.384 0.32 0.705 0.416 1.025 0.256 0.833 0.352 1.634 0.224 2.466z"></path>
</symbol>
<symbol id="icon-dropbox-box" viewBox="0 0 38 32">
<path d="M18.852 6.013l-9.426 6.013 9.426 6.013-9.426 6.013-9.426-6.046 9.426-6.013-9.426-5.981 9.426-6.013 9.426 6.013zM9.377 25.987l9.426-6.013 9.426 6.013-9.426 6.013-9.426-6.013zM18.852 18.007l9.426-6.013-9.426-5.981 9.377-6.013 9.426 6.013-9.426 6.013 9.426 6.013-9.426 6.013-9.377-6.046z"></path>
</symbol>
<symbol id="icon-amazon-name" viewBox="0 0 176 32">
<path d="M101.276 5.766v-3.981c0-0.603 0.458-1.007 1.007-1.007h17.824c0.572 0 1.030 0.412 1.030 1.007v3.409c-0.008 0.572-0.488 1.319-1.342 2.502l-9.236 13.187c3.432-0.084 7.055 0.427 10.166 2.181 0.702 0.397 0.892 0.976 0.946 1.548v4.248c0 0.58-0.641 1.258-1.312 0.908-5.484-2.875-12.767-3.188-18.83 0.031-0.618 0.336-1.266-0.336-1.266-0.915v-4.035c0-0.648 0.008-1.754 0.656-2.738l10.7-15.345h-9.312c-0.572 0-1.030-0.404-1.030-0.999z"></path>
<path d="M36.258 30.606h-5.423c-0.519-0.038-0.931-0.427-0.969-0.923v-27.83c0-0.557 0.465-0.999 1.045-0.999h5.057c0.526 0.023 0.946 0.427 0.984 0.93v3.638h0.099c1.319-3.516 3.798-5.156 7.139-5.156 3.394 0 5.514 1.64 7.040 5.156 1.312-3.516 4.294-5.156 7.489-5.156 2.273 0 4.759 0.938 6.277 3.043 1.716 2.341 1.365 5.743 1.365 8.725l-0.008 17.564c0 0.557-0.465 1.007-1.045 1.007h-5.415c-0.542-0.038-0.976-0.473-0.976-1.007v-14.75c0-1.175 0.107-4.103-0.152-5.217-0.404-1.869-1.617-2.395-3.188-2.395-1.312 0-2.685 0.877-3.241 2.28s-0.504 3.752-0.504 5.331v14.75c0 0.557-0.465 1.007-1.045 1.007h-5.415c-0.549-0.038-0.976-0.473-0.976-1.007l-0.008-14.75c0-3.104 0.511-7.673-3.34-7.673-3.897 0-3.745 4.454-3.745 7.673v14.75c0 0.557-0.465 1.007-1.045 1.007z"></path>
<path d="M136.48 0.267c8.046 0 12.401 6.91 12.401 15.696 0 8.489-4.812 15.223-12.401 15.223-7.901 0-12.203-6.91-12.203-15.52 0-8.664 4.355-15.398 12.203-15.398zM136.526 5.949c-3.996 0-4.248 5.445-4.248 8.839 0 3.401-0.053 10.662 4.202 10.662 4.202 0 4.401-5.857 4.401-9.427 0-2.349-0.099-5.156-0.808-7.383-0.61-1.937-1.823-2.692-3.546-2.692z"></path>
<path d="M159.315 30.606h-5.4c-0.542-0.038-0.976-0.473-0.976-1.007l-0.008-27.838c0.046-0.511 0.496-0.908 1.045-0.908h5.026c0.473 0.023 0.862 0.343 0.968 0.778v4.256h0.099c1.517-3.806 3.645-5.621 7.39-5.621 2.432 0 4.805 0.877 6.33 3.28 1.419 2.227 1.419 5.972 1.419 8.664v17.519c-0.061 0.488-0.512 0.877-1.045 0.877h-5.438c-0.496-0.038-0.907-0.404-0.96-0.877v-15.116c0-3.043 0.35-7.497-3.395-7.497-1.318 0-2.531 0.885-3.134 2.227-0.762 1.701-0.861 3.394-0.861 5.27v14.987c-0.008 0.557-0.481 1.007-1.061 1.007z"></path>
<path d="M87.067 17.313c0 2.113 0.053 3.874-1.014 5.751-0.862 1.525-2.235 2.463-3.752 2.463-2.082 0-3.302-1.586-3.302-3.928 0-4.622 4.141-5.461 8.069-5.461v1.174zM92.536 30.53c-0.359 0.32-0.877 0.343-1.281 0.13-1.8-1.495-2.128-2.189-3.112-3.615-2.974 3.035-5.087 3.943-8.939 3.943-4.568 0-8.115-2.814-8.115-8.45 0-4.401 2.38-7.398 5.781-8.862 2.944-1.297 7.055-1.525 10.197-1.884v-0.702c0-1.289 0.099-2.814-0.664-3.928-0.656-0.999-1.922-1.411-3.043-1.411-2.067 0-3.905 1.060-4.355 3.257-0.092 0.488-0.45 0.969-0.946 0.992l-5.255-0.564c-0.442-0.099-0.938-0.458-0.808-1.136 1.205-6.376 6.971-8.298 12.127-8.298 2.639 0 6.086 0.702 8.168 2.7 2.639 2.463 2.387 5.751 2.387 9.328v8.45c0 2.54 1.052 3.653 2.044 5.026 0.343 0.488 0.42 1.075-0.023 1.441-1.106 0.923-3.074 2.639-4.157 3.6l-0.008-0.015z"></path>
<path d="M15.978 17.313c0 2.113 0.053 3.874-1.014 5.751-0.862 1.525-2.227 2.464-3.752 2.464-2.082 0-3.295-1.586-3.295-3.928 0-4.622 4.141-5.461 8.061-5.461v1.174zM21.446 30.53c-0.358 0.32-0.877 0.343-1.281 0.13-1.8-1.495-2.12-2.189-3.112-3.615-2.974 3.035-5.079 3.943-8.939 3.943-4.561 0-8.115-2.814-8.115-8.451 0-4.401 2.387-7.398 5.781-8.862 2.944-1.297 7.055-1.525 10.197-1.884v-0.702c0-1.289 0.099-2.814-0.656-3.928-0.664-0.999-1.93-1.411-3.043-1.411-2.067 0-3.913 1.060-4.362 3.257-0.092 0.488-0.45 0.969-0.938 0.991l-5.262-0.564c-0.442-0.099-0.93-0.458-0.808-1.136 1.213-6.376 6.971-8.298 12.127-8.298 2.639 0 6.086 0.702 8.168 2.7 2.639 2.463 2.387 5.751 2.387 9.328v8.45c0 2.54 1.053 3.653 2.044 5.026 0.351 0.488 0.427 1.075-0.015 1.441-1.106 0.923-3.074 2.639-4.157 3.6l-0.015-0.015z"></path>
</symbol>
<symbol id="icon-amazon-arrow" viewBox="0 0 135 32">
<path d="M120.994 15.56c-14.545 10.721-35.628 16.441-53.779 16.441-25.451 0-48.364-9.414-65.699-25.070-1.362-1.231-0.142-2.909 1.493-1.95 18.707 10.884 41.838 17.433 65.732 17.433 16.114 0 33.841-3.334 50.14-10.253 2.462-1.046 4.522 1.613 2.114 3.399z"></path>
<path d="M127.041 8.641c-1.852-2.375-12.29-1.122-16.975-0.567-1.427 0.174-1.645-1.068-0.36-1.961 8.313-5.851 21.954-4.162 23.545-2.201 1.591 1.972-0.414 15.646-8.226 22.172-1.199 1.003-2.343 0.469-1.809-0.861 1.754-4.38 5.687-14.197 3.824-16.583z"></path>
</symbol>
<symbol id="icon-dropbox-name" viewBox="0 0 135 32">
<path d="M0.057 2.3h8.711c5.554 0 10.141 3.213 10.141 10.55v1.542c0 7.392-4.29 10.717-9.974 10.717h-8.878v-22.808zM4.924 6.442v14.506h3.733c3.157 0 5.275-2.062 5.275-6.649v-1.207c0-4.588-2.229-6.649-5.442-6.649h-3.566zM21.491 6.665h3.9l0.632 4.29c0.743-2.916 2.637-4.476 6.073-4.476h1.207v4.922h-2.006c-3.956 0-4.922 1.374-4.922 5.275v8.488h-4.811v-18.499h-0.074zM34.27 16.286v-0.52c0-6.185 3.956-9.565 9.343-9.565 5.498 0 9.343 3.38 9.343 9.565v0.52c0 6.074-3.733 9.343-9.343 9.343-5.962-0.056-9.343-3.25-9.343-9.343zM48.033 16.23v-0.464c0-3.436-1.727-5.498-4.476-5.498-2.693 0-4.476 1.895-4.476 5.498v0.464c0 3.325 1.727 5.219 4.476 5.219 2.749-0.056 4.476-1.895 4.476-5.219zM55.481 6.665h4.012l0.464 3.492c0.966-2.34 3.028-3.956 6.074-3.956 4.699 0 7.801 3.38 7.801 9.64v0.52c0 6.074-3.436 9.287-7.801 9.287-2.916 0-4.922-1.319-5.907-3.436v9.343h-4.699l0.056-24.889zM68.947 16.23v-0.409c0-3.678-1.894-5.498-4.42-5.498-2.693 0-4.476 2.062-4.476 5.498v0.353c0 3.269 1.727 5.331 4.421 5.331 2.767-0.056 4.476-1.82 4.476-5.275zM80.945 21.747l-0.409 3.38h-4.123v-24.647h4.699v9.454c1.040-2.415 3.102-3.733 6.018-3.733 4.421 0.056 7.689 3.102 7.689 9.231v0.576c0 6.129-3.102 9.64-7.801 9.64-3.102-0.074-5.108-1.504-6.074-3.9zM89.879 16.007v-0.464c0-3.38-1.839-5.275-4.42-5.275-2.638 0-4.476 2.117-4.476 5.331v0.409c0 3.436 1.783 5.442 4.42 5.442 2.823 0 4.476-1.764 4.476-5.442zM96.882 16.286v-0.52c0-6.185 3.956-9.565 9.343-9.565 5.498 0 9.343 3.38 9.343 9.565v0.52c0 6.074-3.789 9.343-9.343 9.343-5.962-0.056-9.343-3.25-9.343-9.343zM110.682 16.23v-0.464c0-3.436-1.727-5.498-4.476-5.498-2.693 0-4.476 1.895-4.476 5.498v0.464c0 3.325 1.727 5.219 4.476 5.219 2.768-0.056 4.476-1.895 4.476-5.219zM121.863 15.543l-6.482-8.878h5.554l3.733 5.553 3.79-5.553h5.497l-6.575 8.822 6.928 9.64h-5.442l-4.234-6.129-4.123 6.129h-5.683l7.039-9.584z"></path>
</symbol>

<!-- LOGOS WITH FILL -->

<symbol id="icon-adobe-logo" viewBox="0 0 89 32">
<path fill="#b1b1b1" style="fill: var(--color1, #b1b1b1)" d="M9.757 4h-9.757v23.333l9.757-23.333z"></path>
<path fill="#b1b1b1" style="fill: var(--color1, #b1b1b1)" d="M16.621 4h9.744v23.333l-9.744-23.333z"></path>
<path fill="#b1b1b1" style="fill: var(--color1, #b1b1b1)" d="M13.189 12.599l6.21 14.734h-4.074l-1.856-4.691h-4.545l4.265-10.043z"></path>
<path fill="#b1b1b1" style="fill: var(--color1, #b1b1b1)" d="M42.282 18.838l1.15 3.299c0.038 0.083 0.095 0.121 0.197 0.121h2.212c0.121 0 0.14-0.057 0.121-0.178l-4.57-12.693c-0.019-0.102-0.038-0.121-0.14-0.121h-2.746c-0.076 0-0.121 0.057-0.121 0.14-0.038 0.667-0.095 0.871-0.178 1.068l-4.074 11.587c-0.019 0.14 0.025 0.197 0.14 0.197h1.977c0.121 0 0.178-0.038 0.222-0.159l1.087-3.261h4.723zM38.189 16.683c0.597-1.805 1.386-4.119 1.703-5.441h0.019c0.394 1.386 1.322 4.131 1.742 5.441h-3.464z"></path>
<path fill="#b1b1b1" style="fill: var(--color1, #b1b1b1)" d="M51.838 22.456c1.189 0 2.453-0.216 3.737-0.769 0.102-0.038 0.121-0.083 0.121-0.178-0.038-0.356-0.083-0.871-0.083-1.265v-11.95c0-0.076 0-0.114-0.095-0.114h-2.155c-0.083 0-0.121 0.038-0.121 0.14v4.049c-0.337-0.038-0.572-0.057-0.852-0.057-3.477 0-5.612 2.295-5.612 5.161 0 3.324 2.193 4.983 5.059 4.983zM53.243 20.244c-0.356 0.114-0.75 0.159-1.15 0.159-1.576 0-2.867-0.89-2.867-3.051 0-1.913 1.328-3.045 3.089-3.045 0.356 0 0.667 0.038 0.928 0.14v5.797z"></path>
<path fill="#b1b1b1" style="fill: var(--color1, #b1b1b1)" d="M62.57 12.31c-2.968 0-4.805 2.276-4.805 5.085 0 2.511 1.462 5.059 4.761 5.059 2.79 0 4.748-2.053 4.748-5.123 0-2.708-1.659-5.021-4.703-5.021zM62.449 14.306c1.678 0 2.39 1.443 2.39 3.089 0 2.034-1.049 3.045-2.269 3.045-1.506 0-2.396-1.265-2.396-3.089 0-1.875 0.947-3.045 2.276-3.045z"></path>
<path fill="#b1b1b1" style="fill: var(--color1, #b1b1b1)" d="M69.501 8.18c-0.083 0-0.14 0.038-0.14 0.14v13.526c0 0.057 0.057 0.159 0.14 0.178 0.947 0.292 1.939 0.432 2.962 0.432 2.93 0 5.777-1.818 5.777-5.479 0-2.65-1.818-4.665-4.665-4.665-0.655 0-1.265 0.102-1.799 0.28l-0.025-4.252c0-0.14-0.038-0.159-0.178-0.159h-2.072zM75.807 17.218c0 2.193-1.501 3.223-3.121 3.223-0.337 0-0.635-0.019-0.909-0.102v-5.771c0.311-0.121 0.687-0.222 1.379-0.222 1.563 0 2.651 0.992 2.651 2.873z"></path>
<path fill="#b1b1b1" style="fill: var(--color1, #b1b1b1)" d="M86.282 17.929c0.966 0 1.761-0.019 2.034-0.083 0.102-0.019 0.14-0.057 0.159-0.14 0.057-0.216 0.082-0.667 0.082-1.22 0-1.881-1.131-4.176-4.055-4.176-2.987 0-4.647 2.434-4.647 5.18 0 2.434 1.284 4.964 4.881 4.964 1.348 0 2.219-0.216 2.969-0.572 0.076-0.038 0.114-0.102 0.114-0.216v-1.646c0-0.095-0.057-0.114-0.114-0.076-0.75 0.318-1.564 0.477-2.453 0.477-2.015 0-2.931-1.112-2.987-2.492h4.017zM82.265 16.225c0.159-0.966 0.769-2.015 2.135-2.015 1.507 0 1.901 1.265 1.901 1.837 0 0.019 0 0.102 0 0.159-0.083 0.019-0.337 0.019-1.087 0.019h-2.949z"></path>
<path fill="#fa0c00" style="fill: var(--color2, #fa0c00)" d="M9.757 4h-9.757v23.333l9.757-23.333z"></path>
<path fill="#fa0c00" style="fill: var(--color2, #fa0c00)" d="M16.621 4h9.744v23.333l-9.744-23.333z"></path>
<path fill="#fa0c00" style="fill: var(--color2, #fa0c00)" d="M13.189 12.599l6.21 14.734h-4.074l-1.856-4.691h-4.545l4.265-10.043z"></path>
<path fill="#fa0c00" style="fill: var(--color2, #fa0c00)" d="M42.282 18.838l1.15 3.299c0.038 0.083 0.095 0.121 0.197 0.121h2.212c0.121 0 0.14-0.057 0.121-0.178l-4.57-12.693c-0.019-0.102-0.038-0.121-0.14-0.121h-2.746c-0.076 0-0.121 0.057-0.121 0.14-0.038 0.667-0.095 0.871-0.178 1.068l-4.074 11.587c-0.019 0.14 0.025 0.197 0.14 0.197h1.977c0.121 0 0.178-0.038 0.222-0.159l1.087-3.261h4.723zM38.189 16.683c0.597-1.805 1.386-4.119 1.703-5.441h0.019c0.394 1.386 1.322 4.131 1.742 5.441h-3.464z"></path>
<path fill="#fa0c00" style="fill: var(--color2, #fa0c00)" d="M51.838 22.456c1.189 0 2.453-0.216 3.737-0.769 0.102-0.038 0.121-0.083 0.121-0.178-0.038-0.356-0.083-0.871-0.083-1.265v-11.95c0-0.076 0-0.114-0.095-0.114h-2.155c-0.083 0-0.121 0.038-0.121 0.14v4.049c-0.337-0.038-0.572-0.057-0.852-0.057-3.477 0-5.612 2.295-5.612 5.161 0 3.324 2.193 4.983 5.059 4.983zM53.243 20.244c-0.356 0.114-0.75 0.159-1.15 0.159-1.576 0-2.867-0.89-2.867-3.051 0-1.913 1.328-3.045 3.089-3.045 0.356 0 0.667 0.038 0.928 0.14v5.797z"></path>
<path fill="#fa0c00" style="fill: var(--color2, #fa0c00)" d="M62.57 12.31c-2.968 0-4.805 2.276-4.805 5.085 0 2.511 1.462 5.059 4.761 5.059 2.79 0 4.748-2.053 4.748-5.123 0-2.708-1.659-5.021-4.703-5.021zM62.449 14.306c1.678 0 2.39 1.443 2.39 3.089 0 2.034-1.049 3.045-2.269 3.045-1.506 0-2.396-1.265-2.396-3.089 0-1.875 0.947-3.045 2.276-3.045z"></path>
<path fill="#fa0c00" style="fill: var(--color2, #fa0c00)" d="M69.501 8.18c-0.083 0-0.14 0.038-0.14 0.14v13.526c0 0.057 0.057 0.159 0.14 0.178 0.947 0.292 1.939 0.432 2.962 0.432 2.93 0 5.777-1.818 5.777-5.479 0-2.65-1.818-4.665-4.665-4.665-0.655 0-1.265 0.102-1.799 0.28l-0.025-4.252c0-0.14-0.038-0.159-0.178-0.159h-2.072zM75.807 17.218c0 2.193-1.5 3.223-3.121 3.223-0.337 0-0.635-0.019-0.909-0.102v-5.771c0.311-0.121 0.687-0.222 1.379-0.222 1.563 0 2.651 0.992 2.651 2.873z"></path>
<path fill="#fa0c00" style="fill: var(--color2, #fa0c00)" d="M86.282 17.929c0.966 0 1.761-0.019 2.034-0.083 0.102-0.019 0.14-0.057 0.159-0.14 0.057-0.216 0.082-0.667 0.082-1.22 0-1.881-1.131-4.176-4.055-4.176-2.987 0-4.647 2.434-4.647 5.18 0 2.434 1.284 4.964 4.881 4.964 1.348 0 2.219-0.216 2.969-0.572 0.076-0.038 0.114-0.102 0.114-0.216v-1.646c0-0.095-0.057-0.114-0.114-0.076-0.75 0.318-1.564 0.477-2.453 0.477-2.015 0-2.931-1.112-2.987-2.492h4.017zM82.265 16.225c0.159-0.966 0.769-2.015 2.135-2.015 1.507 0 1.901 1.265 1.901 1.837 0 0.019 0 0.102 0 0.159-0.083 0.019-0.337 0.019-1.087 0.019h-2.949z"></path>
</symbol>
<symbol id="icon-spotify-logo" viewBox="0 0 93 32">
<path fill="#1ed760" style="fill: var(--color3, #1ed760)" d="M14.048 2.052c-7.732 0-14 6.268-14 14s6.268 14 14 14c7.733 0 14-6.268 14-14s-6.268-13.999-14.001-13.999l0-0.001zM20.469 22.244c-0.251 0.411-0.789 0.542-1.2 0.289-3.287-2.008-7.425-2.463-12.299-1.349-0.47 0.107-0.938-0.187-1.045-0.657s0.186-0.938 0.656-1.045c5.333-1.218 9.908-0.694 13.598 1.561 0.411 0.252 0.542 0.789 0.289 1.2zM22.182 18.432c-0.316 0.514-0.988 0.676-1.501 0.36-3.763-2.313-9.5-2.983-13.951-1.632-0.577 0.174-1.187-0.151-1.362-0.727-0.174-0.577 0.152-1.186 0.728-1.361 5.085-1.543 11.405-0.795 15.727 1.86 0.513 0.316 0.675 0.988 0.359 1.501v-0zM22.33 14.463c-4.512-2.68-11.957-2.926-16.265-1.619-0.692 0.21-1.423-0.181-1.633-0.872s0.181-1.423 0.873-1.634c4.945-1.501 13.167-1.211 18.362 1.873 0.624 0.369 0.828 1.173 0.458 1.794-0.368 0.622-1.174 0.827-1.794 0.458h-0.001zM38.138 14.976c-2.417-0.576-2.847-0.981-2.847-1.831 0-0.803 0.756-1.344 1.881-1.344 1.090 0 2.17 0.41 3.304 1.255 0.033 0.026 0.077 0.036 0.119 0.029 0.043-0.006 0.080-0.030 0.105-0.065l1.18-1.664c0.049-0.069 0.035-0.163-0.030-0.215-1.349-1.082-2.867-1.608-4.643-1.608-2.61 0-4.434 1.566-4.434 3.807 0 2.403 1.573 3.254 4.292 3.911 2.312 0.533 2.703 0.979 2.703 1.777 0 0.884-0.789 1.434-2.060 1.434-1.411 0-2.563-0.476-3.85-1.59-0.032-0.028-0.075-0.040-0.115-0.038-0.043 0.003-0.082 0.023-0.109 0.055l-1.324 1.575c-0.055 0.067-0.049 0.164 0.015 0.221 1.498 1.337 3.34 2.043 5.33 2.043 2.812 0 4.629-1.536 4.629-3.915 0.005-2.007-1.197-3.119-4.141-3.835l-0.005-0.002zM48.647 12.592c-1.219 0-2.219 0.48-3.044 1.464v-1.107c0-0.087-0.070-0.159-0.157-0.159h-2.165c-0.087 0-0.157 0.071-0.157 0.159v12.305c0 0.087 0.070 0.159 0.157 0.159h2.165c0.087 0 0.157-0.072 0.157-0.159v-3.884c0.826 0.925 1.826 1.378 3.044 1.378 2.265 0 4.559-1.744 4.559-5.077 0.003-3.334-2.29-5.078-4.557-5.078l-0.002 0zM50.689 17.67c0 1.697-1.045 2.882-2.543 2.882-1.48 0-2.596-1.239-2.596-2.882s1.117-2.882 2.596-2.882c1.473-0 2.543 1.212 2.543 2.882v0zM59.083 12.592c-2.917 0-5.203 2.246-5.203 5.114 0 2.837 2.27 5.059 5.168 5.059 2.927 0 5.219-2.239 5.219-5.095 0-2.847-2.277-5.078-5.184-5.078v-0zM59.083 20.569c-1.551 0-2.722-1.247-2.722-2.9 0-1.66 1.13-2.864 2.687-2.864 1.561 0 2.738 1.247 2.738 2.901 0 1.66-1.137 2.863-2.703 2.863zM70.496 12.79h-2.382v-2.435c0-0.087-0.071-0.159-0.157-0.159h-2.165c-0.087 0-0.159 0.071-0.159 0.159v2.435h-1.040c-0.087 0-0.157 0.071-0.157 0.159v1.86c0 0.087 0.070 0.159 0.157 0.159h1.040v4.814c0 1.944 0.968 2.931 2.879 2.931 0.775 0 1.419-0.16 2.026-0.505 0.050-0.027 0.080-0.080 0.080-0.137v-1.772c0-0.054-0.028-0.105-0.075-0.134-0.047-0.030-0.105-0.032-0.153-0.007-0.417 0.209-0.819 0.306-1.271 0.306-0.694 0-1.005-0.316-1.005-1.021v-4.474h2.382c0.087 0 0.157-0.071 0.157-0.159v-1.86c0.003-0.087-0.067-0.159-0.155-0.159l-0.002-0.001zM78.795 12.8v-0.299c0-0.88 0.337-1.272 1.093-1.272 0.451 0 0.814 0.090 1.22 0.225 0.050 0.016 0.102 0.008 0.142-0.022 0.042-0.030 0.065-0.078 0.065-0.129v-1.824c0-0.070-0.043-0.131-0.112-0.152-0.428-0.128-0.976-0.258-1.799-0.258-1.998 0-3.056 1.126-3.056 3.254v0.458h-1.040c-0.087 0-0.159 0.071-0.159 0.159v1.87c0 0.087 0.072 0.159 0.159 0.159h1.040v7.424c0 0.089 0.072 0.159 0.159 0.159h2.163c0.089 0 0.159-0.070 0.159-0.159v-7.423h2.021l3.096 7.423c-0.351 0.779-0.697 0.935-1.169 0.935-0.381 0-0.784-0.114-1.193-0.339-0.039-0.020-0.085-0.023-0.125-0.012-0.042 0.015-0.077 0.045-0.094 0.085l-0.733 1.61c-0.035 0.077-0.005 0.166 0.068 0.206 0.766 0.415 1.457 0.592 2.311 0.592 1.598 0 2.483-0.746 3.26-2.748l3.755-9.703c0.021-0.049 0.013-0.104-0.017-0.147-0.028-0.043-0.077-0.069-0.129-0.069h-2.253c-0.069 0-0.129 0.043-0.151 0.106l-2.309 6.593-2.528-6.597c-0.023-0.061-0.082-0.102-0.147-0.102l-3.698-0zM73.983 12.79h-2.165c-0.087 0-0.159 0.071-0.159 0.159v9.443c0 0.089 0.071 0.159 0.159 0.159h2.165c0.087 0 0.159-0.070 0.159-0.159v-9.442c0-0.087-0.071-0.159-0.159-0.159v-0.001zM72.913 8.49c-0.857 0-1.553 0.694-1.553 1.552s0.695 1.553 1.553 1.553c0.858 0 1.552-0.695 1.552-1.553s-0.696-1.552-1.552-1.552zM91.875 15.826c-0.856 0-1.523-0.688-1.523-1.523s0.676-1.531 1.532-1.531c0.855 0 1.523 0.688 1.523 1.523s-0.675 1.532-1.531 1.532zM91.884 12.923c-0.781 0-1.371 0.62-1.371 1.38s0.587 1.371 1.363 1.371c0.781 0 1.371-0.62 1.371-1.38s-0.587-1.371-1.362-1.371zM92.221 14.451l0.431 0.603h-0.365l-0.387-0.553h-0.333v0.553h-0.305v-1.599h0.712c0.373 0 0.617 0.19 0.617 0.51 0.001 0.262-0.151 0.422-0.369 0.486h-0.002zM91.964 13.73h-0.396v0.506h0.396c0.197 0 0.316-0.097 0.316-0.253 0-0.165-0.119-0.253-0.316-0.253z"></path>
</symbol>
<symbol id="icon-discord-logo" viewBox="0 0 114 32">
<path d="M24.075 7.215c-1.84-0.861-3.807-1.486-5.863-1.842-0.253 0.457-0.548 1.071-0.751 1.559-2.186-0.329-4.352-0.329-6.498 0-0.203-0.489-0.505-1.103-0.76-1.559-2.059 0.356-4.028 0.984-5.868 1.847-3.711 5.607-4.717 11.075-4.214 16.466 2.461 1.838 4.846 2.954 7.191 3.685 0.579-0.797 1.095-1.644 1.54-2.537-0.847-0.322-1.659-0.719-2.425-1.18 0.203-0.151 0.402-0.308 0.595-0.47 4.676 2.187 9.757 2.187 14.378 0 0.194 0.162 0.393 0.32 0.595 0.47-0.769 0.463-1.583 0.861-2.43 1.183 0.445 0.89 0.959 1.74 1.54 2.537 2.347-0.731 4.734-1.847 7.196-3.687 0.59-6.249-1.008-11.667-4.225-16.47zM9.489 20.37c-1.404 0-2.555-1.311-2.555-2.906s1.127-2.909 2.555-2.909c1.428 0 2.58 1.31 2.555 2.909 0.002 1.596-1.127 2.906-2.555 2.906zM18.931 20.37c-1.404 0-2.555-1.311-2.555-2.906s1.127-2.909 2.555-2.909c1.428 0 2.58 1.31 2.555 2.909 0 1.596-1.127 2.906-2.555 2.906z"></path>
<path d="M38.19 10.985h6.102c1.471 0 2.714 0.235 3.733 0.703 1.017 0.468 1.779 1.121 2.284 1.957s0.76 1.792 0.76 2.87c0 1.055-0.264 2.011-0.791 2.868-0.527 0.858-1.33 1.537-2.41 2.037s-2.417 0.751-4.015 0.751h-5.664v-11.185zM43.792 19.327c0.99 0 1.753-0.253 2.285-0.758 0.532-0.507 0.798-1.196 0.798-2.071 0-0.811-0.237-1.457-0.711-1.941s-1.191-0.728-2.151-0.728h-1.909v5.498h1.688z"></path>
<path d="M60.206 22.156c-0.845-0.224-1.607-0.548-2.285-0.975v-2.653c0.512 0.404 1.198 0.737 2.059 1 0.861 0.26 1.692 0.39 2.497 0.39 0.376 0 0.66-0.050 0.852-0.151s0.289-0.221 0.289-0.361c0-0.16-0.051-0.292-0.157-0.4s-0.309-0.196-0.61-0.272l-1.878-0.432c-1.075-0.256-1.838-0.61-2.291-1.064-0.454-0.452-0.68-1.046-0.68-1.781 0-0.619 0.197-1.155 0.595-1.614 0.395-0.459 0.959-0.813 1.69-1.062 0.731-0.251 1.585-0.377 2.566-0.377 0.876 0 1.679 0.096 2.41 0.288s1.334 0.436 1.815 0.735v2.509c-0.492-0.299-1.056-0.534-1.699-0.712-0.642-0.176-1.301-0.263-1.981-0.263-0.981 0-1.471 0.171-1.471 0.511 0 0.16 0.076 0.279 0.228 0.358s0.431 0.162 0.836 0.249l1.565 0.288c1.022 0.18 1.784 0.498 2.285 0.95s0.751 1.121 0.751 2.007c0 0.97-0.413 1.74-1.243 2.311s-2.005 0.856-3.53 0.856c-0.896-0.002-1.768-0.114-2.613-0.338z"></path>
<path d="M71.285 21.82c-0.896-0.448-1.573-1.055-2.025-1.822s-0.679-1.63-0.679-2.589c0-0.959 0.235-1.817 0.704-2.573s1.158-1.349 2.065-1.781 1.992-0.646 3.255-0.646c1.565 0 2.863 0.336 3.897 1.007v2.925c-0.365-0.256-0.789-0.463-1.275-0.623s-1.003-0.24-1.558-0.24c-0.97 0-1.727 0.18-2.275 0.543s-0.823 0.836-0.823 1.422c0 0.575 0.266 1.046 0.798 1.416 0.532 0.368 1.303 0.553 2.316 0.553 0.521 0 1.035-0.078 1.542-0.231 0.505-0.155 0.941-0.345 1.305-0.569v2.829c-1.146 0.703-2.477 1.055-3.99 1.055-1.274-0.005-2.361-0.228-3.257-0.676z"></path>
<path d="M82.404 21.82c-0.903-0.447-1.591-1.059-2.066-1.838-0.473-0.779-0.713-1.646-0.713-2.605s0.237-1.815 0.713-2.566 1.161-1.34 2.059-1.767c0.896-0.427 1.967-0.639 3.207-0.639s2.311 0.212 3.208 0.639c0.896 0.427 1.581 1.011 2.050 1.758s0.704 1.603 0.704 2.573c0 0.959-0.235 1.827-0.704 2.605s-1.156 1.39-2.059 1.838c-0.903 0.447-1.969 0.671-3.201 0.671s-2.298-0.221-3.199-0.669zM87.158 18.985c0.381-0.388 0.573-0.902 0.573-1.541s-0.19-1.148-0.573-1.525c-0.379-0.379-0.899-0.569-1.555-0.569-0.669 0-1.192 0.19-1.574 0.569-0.38 0.379-0.57 0.886-0.57 1.525s0.19 1.153 0.57 1.541c0.381 0.388 0.905 0.584 1.574 0.584 0.657-0.002 1.176-0.196 1.555-0.584z"></path>
<path d="M100.968 12.999v3.452c-0.397-0.267-0.912-0.4-1.549-0.4-0.834 0-1.478 0.258-1.925 0.774-0.449 0.516-0.673 1.32-0.673 2.406v2.941h-3.833v-9.349h3.755v2.973c0.208-1.087 0.545-1.888 1.011-2.406 0.463-0.516 1.061-0.774 1.79-0.774 0.552 0 1.027 0.128 1.424 0.384z"></path>
<path d="M113.705 10.665v11.507h-3.834v-2.094c-0.324 0.788-0.815 1.388-1.477 1.799-0.662 0.409-1.48 0.614-2.45 0.614-0.867 0-1.623-0.215-2.269-0.646s-1.144-1.023-1.495-1.774c-0.349-0.751-0.525-1.6-0.525-2.55-0.011-0.979 0.174-1.858 0.557-2.637 0.38-0.779 0.919-1.386 1.611-1.822s1.485-0.655 2.372-0.655c1.827 0 3.051 0.81 3.677 2.429v-4.171h3.834zM109.299 18.921c0.391-0.388 0.586-0.893 0.586-1.509 0-0.596-0.19-1.082-0.57-1.454s-0.901-0.559-1.556-0.559c-0.646 0-1.162 0.189-1.549 0.568s-0.579 0.87-0.579 1.477 0.192 1.103 0.579 1.486c0.387 0.384 0.897 0.575 1.533 0.575 0.646-0.002 1.165-0.196 1.556-0.584z"></path>
<path d="M54.301 13.818c1.055 0 1.911-0.785 1.911-1.753s-0.856-1.753-1.911-1.753c-1.056 0-1.911 0.785-1.911 1.753s0.856 1.753 1.911 1.753z"></path>
<path d="M52.388 15.026c1.171 0.516 2.624 0.539 3.822 0v7.196h-3.822v-7.196z"></path>
</symbol>
<symbol id="icon-amazon-logo" viewBox="0 0 73 32">
<path fill="#f90" style="fill: var(--color4, #f90)" d="M45.29 25.205c-4.242 3.127-10.391 4.795-15.686 4.795-7.423 0-14.106-2.746-19.162-7.312-0.397-0.359-0.041-0.848 0.435-0.569 5.456 3.175 12.203 5.084 19.172 5.084 4.7 0 9.87-0.972 14.624-2.99 0.718-0.305 1.319 0.47 0.616 0.991z"></path>
<path fill="#f90" style="fill: var(--color4, #f90)" d="M47.054 23.187c-0.54-0.693-3.585-0.327-4.951-0.165-0.416 0.051-0.48-0.311-0.105-0.572 2.425-1.706 6.403-1.214 6.867-0.642 0.464 0.575-0.121 4.563-2.399 6.467-0.35 0.292-0.683 0.137-0.528-0.251 0.512-1.278 1.659-4.141 1.115-4.837z"></path>
<path fill="#000" style="fill: var(--color5, #000)" d="M42.198 10.402v-1.659c0-0.251 0.191-0.419 0.419-0.419h7.427c0.238 0 0.429 0.172 0.429 0.419v1.42c-0.003 0.238-0.203 0.55-0.559 1.042l-3.848 5.494c1.43-0.035 2.939 0.178 4.236 0.909 0.292 0.165 0.372 0.407 0.394 0.645v1.77c0 0.241-0.267 0.524-0.547 0.378-2.285-1.198-5.32-1.328-7.846 0.013-0.257 0.14-0.528-0.14-0.528-0.381v-1.681c0-0.27 0.003-0.731 0.273-1.141l4.458-6.394h-3.88c-0.238 0-0.429-0.168-0.429-0.416z"></path>
<path fill="#000" style="fill: var(--color5, #000)" d="M15.107 20.753h-2.259c-0.216-0.016-0.388-0.178-0.404-0.385v-11.596c0-0.232 0.194-0.416 0.435-0.416h2.107c0.219 0.010 0.394 0.178 0.41 0.388v1.516h0.041c0.55-1.465 1.583-2.148 2.974-2.148 1.414 0 2.298 0.683 2.933 2.148 0.547-1.465 1.789-2.148 3.121-2.148 0.947 0 1.983 0.391 2.615 1.268 0.715 0.976 0.569 2.393 0.569 3.635l-0.003 7.319c0 0.232-0.194 0.419-0.435 0.419h-2.256c-0.226-0.016-0.407-0.197-0.407-0.419v-6.146c0-0.489 0.045-1.71-0.064-2.174-0.168-0.779-0.674-0.998-1.328-0.998-0.547 0-1.119 0.365-1.351 0.95s-0.21 1.563-0.21 2.221v6.146c0 0.232-0.194 0.419-0.435 0.419h-2.256c-0.229-0.016-0.407-0.197-0.407-0.419l-0.003-6.146c0-1.293 0.213-3.197-1.392-3.197-1.624 0-1.56 1.856-1.56 3.197v6.146c0 0.232-0.194 0.419-0.435 0.419z"></path>
<path fill="#000" style="fill: var(--color5, #000)" d="M56.867 8.111c3.353 0 5.167 2.879 5.167 6.54 0 3.537-2.005 6.343-5.167 6.343-3.292 0-5.084-2.879-5.084-6.467 0-3.61 1.815-6.416 5.084-6.416zM56.886 10.479c-1.665 0-1.77 2.269-1.77 3.683 0 1.417-0.022 4.443 1.751 4.443 1.751 0 1.834-2.441 1.834-3.928 0-0.979-0.041-2.148-0.337-3.076-0.254-0.807-0.759-1.122-1.478-1.122z"></path>
<path fill="#000" style="fill: var(--color5, #000)" d="M66.381 20.753h-2.25c-0.226-0.016-0.407-0.197-0.407-0.419l-0.003-11.599c0.019-0.213 0.207-0.378 0.435-0.378h2.094c0.197 0.010 0.359 0.143 0.404 0.324v1.773h0.041c0.632-1.586 1.519-2.342 3.079-2.342 1.013 0 2.002 0.365 2.637 1.366 0.591 0.928 0.591 2.488 0.591 3.61v7.299c-0.025 0.203-0.213 0.365-0.435 0.365h-2.266c-0.207-0.016-0.378-0.168-0.4-0.365v-6.298c0-1.268 0.146-3.124-1.415-3.124-0.549 0-1.055 0.369-1.306 0.928-0.317 0.709-0.359 1.414-0.359 2.196v6.244c-0.003 0.232-0.2 0.419-0.442 0.419z"></path>
<path fill="#000" style="fill: var(--color5, #000)" d="M36.278 15.214c0 0.88 0.022 1.614-0.423 2.396-0.359 0.636-0.931 1.026-1.564 1.026-0.868 0-1.376-0.661-1.376-1.637 0-1.926 1.726-2.275 3.362-2.275v0.489zM38.556 20.721c-0.149 0.133-0.365 0.143-0.534 0.054-0.75-0.623-0.887-0.912-1.297-1.506-1.239 1.265-2.12 1.643-3.724 1.643-1.903 0-3.381-1.173-3.381-3.521 0-1.834 0.991-3.083 2.409-3.693 1.227-0.54 2.939-0.636 4.249-0.785v-0.292c0-0.537 0.041-1.173-0.276-1.637-0.273-0.416-0.801-0.588-1.268-0.588-0.861 0-1.627 0.442-1.815 1.357-0.038 0.203-0.187 0.404-0.394 0.413l-2.189-0.235c-0.184-0.041-0.391-0.191-0.337-0.473 0.502-2.657 2.905-3.457 5.053-3.457 1.1 0 2.536 0.292 3.403 1.125 1.1 1.026 0.995 2.396 0.995 3.886v3.521c0 1.058 0.439 1.522 0.852 2.094 0.143 0.203 0.175 0.448-0.010 0.601-0.461 0.385-1.281 1.1-1.732 1.5l-0.003-0.006z"></path>
<path fill="#000" style="fill: var(--color5, #000)" d="M6.657 15.214c0 0.88 0.022 1.614-0.423 2.396-0.359 0.636-0.928 1.026-1.563 1.026-0.868 0-1.373-0.661-1.373-1.637 0-1.926 1.726-2.275 3.359-2.275v0.489zM8.936 20.721c-0.149 0.133-0.365 0.143-0.534 0.054-0.75-0.623-0.883-0.912-1.297-1.506-1.239 1.265-2.116 1.643-3.724 1.643-1.9 0-3.381-1.173-3.381-3.521 0-1.834 0.995-3.082 2.409-3.693 1.227-0.54 2.939-0.636 4.249-0.785v-0.292c0-0.537 0.041-1.173-0.273-1.637-0.276-0.416-0.804-0.588-1.268-0.588-0.861 0-1.63 0.442-1.818 1.357-0.038 0.203-0.188 0.404-0.391 0.413l-2.193-0.235c-0.184-0.041-0.388-0.191-0.337-0.473 0.505-2.657 2.905-3.457 5.053-3.457 1.1 0 2.536 0.292 3.403 1.125 1.099 1.026 0.995 2.396 0.995 3.886v3.521c0 1.058 0.439 1.522 0.852 2.094 0.146 0.203 0.178 0.448-0.006 0.601-0.461 0.385-1.281 1.1-1.732 1.5l-0.006-0.006z"></path>
</symbol>
<symbol id="icon-dropbox-logo" viewBox="0 0 109 32">
<path fill="#000" style="fill: var(--color5, #000)" d="M30.034 9.342h5.081c3.24 0 5.916 1.874 5.916 6.154v0.899c0 4.312-2.503 6.252-5.818 6.252h-5.179v-13.305zM32.872 11.758v8.462h2.178c1.842 0 3.077-1.203 3.077-3.879v-0.704c0-2.676-1.3-3.879-3.175-3.879h-2.080zM42.537 11.888h2.275l0.368 2.503c0.433-1.701 1.538-2.611 3.543-2.611h0.704v2.871h-1.17c-2.308 0-2.871 0.802-2.871 3.077v4.951h-2.806v-10.791h-0.043zM49.991 17.5v-0.303c0-3.608 2.308-5.58 5.45-5.58 3.207 0 5.45 1.972 5.45 5.58v0.303c0 3.543-2.178 5.45-5.45 5.45-3.478-0.033-5.45-1.896-5.45-5.45zM58.019 17.468v-0.271c0-2.004-1.008-3.207-2.611-3.207-1.571 0-2.611 1.105-2.611 3.207v0.271c0 1.939 1.008 3.045 2.611 3.045 1.603-0.032 2.611-1.105 2.611-3.045zM62.364 11.888h2.34l0.271 2.037c0.563-1.365 1.766-2.308 3.543-2.308 2.741 0 4.551 1.972 4.551 5.623v0.303c0 3.543-2.005 5.417-4.551 5.417-1.701 0-2.871-0.769-3.445-2.004v5.45h-2.741l0.033-14.518zM70.219 17.468v-0.238c0-2.145-1.105-3.207-2.579-3.207-1.571 0-2.611 1.203-2.611 3.207v0.206c0 1.907 1.008 3.11 2.579 3.11 1.614-0.033 2.611-1.062 2.611-3.077zM77.218 20.686l-0.238 1.972h-2.405v-14.378h2.741v5.515c0.607-1.408 1.809-2.178 3.51-2.178 2.579 0.033 4.486 1.809 4.486 5.385v0.336c0 3.575-1.81 5.623-4.551 5.623-1.809-0.043-2.98-0.878-3.543-2.275zM82.43 17.338v-0.271c0-1.972-1.073-3.077-2.579-3.077-1.539 0-2.611 1.235-2.611 3.11v0.238c0 2.004 1.040 3.175 2.579 3.175 1.647 0 2.611-1.029 2.611-3.175zM86.514 17.5v-0.303c0-3.608 2.308-5.58 5.45-5.58 3.207 0 5.45 1.972 5.45 5.58v0.303c0 3.543-2.21 5.45-5.45 5.45-3.478-0.033-5.45-1.896-5.45-5.45zM94.565 17.468v-0.271c0-2.004-1.008-3.207-2.611-3.207-1.571 0-2.611 1.105-2.611 3.207v0.271c0 1.939 1.008 3.045 2.611 3.045 1.614-0.032 2.611-1.105 2.611-3.045zM101.087 17.067l-3.781-5.179h3.24l2.177 3.24 2.211-3.24h3.207l-3.835 5.146 4.041 5.623h-3.175l-2.47-3.575-2.405 3.575h-3.315l4.106-5.591z"></path>
<path fill="#0061ff" style="fill: var(--color6, #0061ff)" d="M12.568 9.342l-6.284 4.009 6.284 4.009-6.284 4.009-6.284-4.030 6.284-4.009-6.284-3.987 6.284-4.009 6.284 4.009zM6.252 22.658l6.284-4.009 6.284 4.009-6.284 4.009-6.284-4.009zM12.568 17.338l6.284-4.009-6.284-3.987 6.252-4.009 6.284 4.009-6.284 4.009 6.284 4.009-6.284 4.009-6.252-4.030z"></path>
</symbol>
<symbol id="icon-airbnb-logo" viewBox="0 0 85 32">
<path fill="#ff5a5f" style="fill: var(--color7, #ff5a5f)" d="M45.031 9.367c0 0.961-0.774 1.735-1.735 1.735s-1.735-0.774-1.735-1.735c0-0.961 0.747-1.735 1.735-1.735 0.988 0.027 1.735 0.801 1.735 1.735zM37.877 12.864c0 0.16 0 0.427 0 0.427s-0.827-1.068-2.589-1.068c-2.91 0-5.179 2.216-5.179 5.285 0 3.043 2.242 5.285 5.179 5.285 1.788 0 2.589-1.094 2.589-1.094v0.454c0 0.214 0.16 0.374 0.374 0.374h2.162v-10.037c0 0-1.975 0-2.162 0-0.214 0-0.374 0.187-0.374 0.374zM37.877 19.297c-0.4 0.587-1.201 1.094-2.162 1.094-1.708 0-3.016-1.068-3.016-2.883s1.308-2.883 3.016-2.883c0.934 0 1.788 0.534 2.162 1.094v3.577zM42.015 12.49h2.563v10.037h-2.563v-10.037zM80.293 12.223c-1.762 0-2.589 1.068-2.589 1.068v-5.632h-2.563v14.868c0 0 1.975 0 2.162 0 0.214 0 0.374-0.187 0.374-0.374v-0.454c0 0 0.827 1.094 2.589 1.094 2.909 0 5.179-2.242 5.179-5.285s-2.269-5.285-5.152-5.285zM79.866 20.364c-0.987 0-1.761-0.507-2.162-1.094v-3.577c0.401-0.534 1.255-1.094 2.162-1.094 1.709 0 3.017 1.068 3.017 2.883s-1.308 2.883-3.017 2.883zM73.807 16.574v5.979h-2.563v-5.686c0-1.655-0.534-2.322-1.975-2.322-0.774 0-1.575 0.4-2.082 0.988v6.994h-2.562v-10.037h2.029c0.214 0 0.374 0.187 0.374 0.374v0.427c0.747-0.774 1.735-1.068 2.723-1.068 1.121 0 2.055 0.32 2.803 0.961 0.908 0.747 1.255 1.708 1.255 3.39zM58.405 12.223c-1.762 0-2.589 1.068-2.589 1.068v-5.632h-2.563v14.868c0 0 1.975 0 2.162 0 0.214 0 0.374-0.187 0.374-0.374v-0.454c0 0 0.827 1.094 2.589 1.094 2.91 0 5.178-2.242 5.178-5.285 0.027-3.043-2.242-5.285-5.152-5.285zM57.978 20.364c-0.988 0-1.762-0.507-2.162-1.094v-3.577c0.4-0.534 1.255-1.094 2.162-1.094 1.708 0 3.016 1.068 3.016 2.883s-1.308 2.883-3.016 2.883zM51.037 12.223c0.774 0 1.174 0.133 1.174 0.133v2.376c0 0-2.135-0.721-3.47 0.801v7.020h-2.563v-10.063c0 0 1.975 0 2.162 0 0.214 0 0.374 0.187 0.374 0.374v0.427c0.48-0.561 1.522-1.068 2.322-1.068zM24.424 21.619c-0.133-0.32-0.267-0.667-0.4-0.961-0.214-0.48-0.427-0.934-0.614-1.361l-0.027-0.027c-1.842-4.004-3.817-8.061-5.899-12.065l-0.080-0.16c-0.214-0.4-0.427-0.827-0.641-1.255-0.267-0.48-0.534-0.988-0.961-1.468-0.854-1.068-2.082-1.655-3.39-1.655-1.335 0-2.536 0.587-3.417 1.602-0.4 0.48-0.694 0.988-0.961 1.468-0.214 0.427-0.427 0.854-0.641 1.255l-0.080 0.16c-2.055 4.004-4.057 8.061-5.899 12.065l-0.027 0.053c-0.187 0.427-0.4 0.881-0.614 1.361-0.133 0.294-0.267 0.614-0.4 0.961-0.347 0.988-0.454 1.922-0.32 2.883 0.294 2.002 1.628 3.684 3.47 4.431 0.694 0.294 1.415 0.427 2.162 0.427 0.214 0 0.48-0.027 0.694-0.053 0.881-0.107 1.788-0.4 2.669-0.908 1.094-0.614 2.135-1.495 3.31-2.776 1.174 1.281 2.242 2.162 3.31 2.776 0.881 0.507 1.788 0.801 2.669 0.908 0.214 0.027 0.481 0.053 0.694 0.053 0.747 0 1.495-0.133 2.162-0.427 1.869-0.747 3.177-2.456 3.47-4.431 0.214-0.934 0.107-1.869-0.24-2.856zM12.385 23.007c-1.441-1.815-2.376-3.524-2.696-4.965-0.133-0.614-0.16-1.148-0.080-1.628 0.053-0.427 0.214-0.801 0.427-1.121 0.507-0.721 1.361-1.174 2.349-1.174s1.869 0.427 2.349 1.174c0.214 0.32 0.374 0.694 0.427 1.121 0.080 0.48 0.053 1.041-0.080 1.628-0.32 1.415-1.255 3.123-2.696 4.965zM23.036 24.262c-0.187 1.388-1.121 2.589-2.429 3.123-0.641 0.267-1.335 0.347-2.029 0.267-0.667-0.080-1.335-0.294-2.029-0.694-0.961-0.534-1.922-1.361-3.043-2.589 1.762-2.162 2.829-4.138 3.23-5.899 0.187-0.827 0.214-1.575 0.133-2.269-0.107-0.667-0.347-1.281-0.721-1.815-0.827-1.201-2.216-1.895-3.764-1.895s-2.936 0.721-3.764 1.895c-0.374 0.534-0.614 1.148-0.721 1.815-0.107 0.694-0.080 1.468 0.133 2.269 0.4 1.762 1.495 3.764 3.23 5.926-1.094 1.228-2.082 2.055-3.043 2.589-0.694 0.4-1.361 0.614-2.029 0.694-0.721 0.080-1.415-0.027-2.029-0.267-1.308-0.534-2.242-1.735-2.429-3.123-0.080-0.667-0.027-1.335 0.24-2.082 0.080-0.267 0.214-0.534 0.347-0.854 0.187-0.427 0.4-0.881 0.614-1.335l0.027-0.053c1.842-3.977 3.817-8.035 5.873-11.985l0.080-0.16c0.214-0.4 0.427-0.827 0.641-1.228 0.214-0.427 0.454-0.827 0.747-1.175 0.561-0.641 1.308-0.988 2.135-0.988s1.575 0.347 2.135 0.988c0.294 0.347 0.534 0.747 0.747 1.175 0.214 0.4 0.427 0.827 0.641 1.228l0.080 0.16c2.029 3.977 4.004 8.035 5.846 12.012v0.027c0.214 0.427 0.4 0.908 0.614 1.335 0.133 0.32 0.267 0.587 0.347 0.854 0.214 0.694 0.294 1.361 0.187 2.055z"></path>
</symbol>
</defs>
</svg>

